<svg width="1046" height="1046" viewBox="0 0 1046 1046" fill="none" xmlns="http://www.w3.org/2000/svg">
<path d="M525.171 0.00683594C538.177 0.0625066 551.071 0.592146 563.836 1.58105L562.043 24.7324C563.488 24.8444 564.932 24.9627 566.374 25.0869L568.366 1.95312C581.297 3.06725 594.092 4.65136 606.736 6.68945L603.042 29.6143C604.477 29.8455 605.91 30.0827 607.341 30.3262L611.235 7.43457C624.016 9.60953 636.638 12.2484 649.085 15.333L643.5 37.8711C644.903 38.2189 646.304 38.573 647.703 38.9326L653.485 16.4424C666.036 19.6695 678.405 23.3507 690.572 27.4678L683.13 49.4648C684.503 49.9293 685.873 50.3999 687.24 50.876L694.874 28.9463C707.093 33.2005 719.105 37.8954 730.893 43.0117L721.648 64.3125C722.979 64.8902 724.307 65.4736 725.632 66.0625L735.063 44.8418C746.876 50.0926 758.457 55.7692 769.789 61.8506L758.81 82.3115C760.087 82.9969 761.36 83.6877 762.631 84.3838L773.788 64.0205C785.119 70.2294 796.196 76.8445 806.997 83.8486L794.363 103.333C795.579 104.122 796.792 104.915 798.001 105.714L810.803 86.3408C821.574 93.4591 832.065 100.966 842.259 108.84L828.064 127.216C829.212 128.102 830.355 128.994 831.495 129.891L845.85 111.637C855.991 119.612 865.829 127.956 875.346 136.646L859.689 153.793C860.76 154.771 861.827 155.753 862.89 156.74L878.694 139.728C888.142 148.505 897.264 157.627 906.041 167.074L889.029 182.88C890.016 183.942 890.999 185.009 891.977 186.08L909.123 170.423C917.813 179.94 926.156 189.778 934.132 199.919L915.879 214.274C916.775 215.414 917.667 216.558 918.554 217.705L936.929 203.51C944.803 213.703 952.309 224.195 959.428 234.966L940.056 247.769C940.855 248.977 941.648 250.19 942.437 251.406L961.92 238.771C968.924 249.573 975.539 260.649 981.748 271.98L961.386 283.139C962.082 284.409 962.773 285.683 963.458 286.96L983.918 275.979C989.999 287.311 995.676 298.893 1000.93 310.705L979.707 320.138C980.296 321.462 980.879 322.79 981.457 324.121L1002.76 314.876C1007.87 326.663 1012.57 338.675 1016.82 350.894L994.894 358.529C995.37 359.897 995.84 361.267 996.305 362.64L1018.3 355.196C1022.42 367.364 1026.1 379.732 1029.33 392.283H1029.33L1006.84 398.066C1007.2 399.465 1007.55 400.866 1007.9 402.27L1030.44 396.684C1033.52 409.13 1036.16 421.753 1038.33 434.533L1015.44 438.429C1015.69 439.859 1015.92 441.293 1016.16 442.728L1039.08 439.031C1041.12 451.676 1042.7 464.472 1043.82 477.402L1020.68 479.396C1020.81 480.837 1020.93 482.281 1021.04 483.727L1044.19 481.933C1045.18 494.698 1045.71 507.592 1045.76 520.598L1022.54 520.696C1022.55 521.425 1022.55 522.155 1022.55 522.885C1022.55 523.614 1022.55 524.343 1022.54 525.072L1045.76 525.171C1045.71 538.177 1045.18 551.071 1044.19 563.836L1021.04 562.043C1020.93 563.488 1020.81 564.932 1020.68 566.374L1043.82 568.366C1042.7 581.297 1041.12 594.092 1039.08 606.736L1016.16 603.042C1015.92 604.477 1015.69 605.91 1015.44 607.341L1038.33 611.235C1036.16 624.016 1033.52 636.638 1030.44 649.085L1007.9 643.5C1007.55 644.903 1007.2 646.305 1006.84 647.703L1029.33 653.484C1026.1 666.035 1022.42 678.404 1018.3 690.572L996.305 683.13C995.84 684.503 995.37 685.873 994.894 687.24L1016.82 694.874C1012.57 707.093 1007.87 719.105 1002.76 730.893L981.457 721.647C980.879 722.978 980.296 724.307 979.707 725.632L1000.93 735.063C995.676 746.876 989.999 758.457 983.918 769.789L963.458 758.809C962.773 760.086 962.082 761.36 961.386 762.631L981.748 773.788C975.539 785.119 968.924 796.196 961.92 806.997L942.437 794.363C941.648 795.579 940.855 796.792 940.056 798.001L959.427 810.803C952.309 821.574 944.803 832.066 936.929 842.259L918.554 828.063C917.667 829.211 916.775 830.355 915.879 831.495L934.132 845.849C926.156 855.99 917.814 865.829 909.124 875.346L891.977 859.689C890.999 860.76 890.016 861.827 889.029 862.89L906.041 878.694C897.264 888.142 888.142 897.264 878.694 906.041L862.89 889.029C861.827 890.016 860.76 890.999 859.689 891.977L875.346 909.123C865.829 917.813 855.991 926.156 845.85 934.132L831.495 915.879C830.355 916.775 829.212 917.667 828.064 918.554L842.259 936.929C832.066 944.803 821.574 952.309 810.804 959.427L798.001 940.056C796.792 940.854 795.579 941.648 794.363 942.437L806.997 961.92C796.196 968.924 785.119 975.539 773.788 981.748L762.631 961.386C761.36 962.082 760.087 962.773 758.81 963.458L769.789 983.918C758.457 989.999 746.876 995.676 735.063 1000.93L725.632 979.707C724.307 980.296 722.979 980.879 721.648 981.457L730.894 1002.76C719.106 1007.87 707.094 1012.57 694.875 1016.82L687.24 994.894C685.873 995.37 684.502 995.84 683.13 996.305L690.572 1018.3C678.405 1022.42 666.036 1026.1 653.485 1029.33L647.703 1006.84C646.305 1007.2 644.903 1007.55 643.5 1007.9L649.085 1030.44C636.638 1033.52 624.016 1036.16 611.235 1038.33L607.341 1015.44C605.91 1015.69 604.477 1015.92 603.042 1016.16L606.737 1039.08C594.093 1041.12 581.297 1042.7 568.366 1043.82L566.374 1020.68C564.932 1020.81 563.488 1020.92 562.043 1021.04L563.836 1044.19C551.071 1045.18 538.177 1045.71 525.171 1045.76L525.073 1022.54C524.344 1022.55 523.614 1022.55 522.885 1022.55C522.155 1022.55 521.426 1022.55 520.697 1022.54L520.598 1045.76C507.592 1045.71 494.698 1045.18 481.933 1044.19L483.727 1021.04C482.281 1020.92 480.837 1020.81 479.396 1020.68L477.402 1043.82C464.472 1042.7 451.676 1041.12 439.032 1039.08L442.728 1016.16C441.293 1015.92 439.86 1015.69 438.43 1015.44L434.533 1038.33C421.753 1036.16 409.13 1033.52 396.684 1030.44L402.271 1007.9C400.867 1007.55 399.465 1007.2 398.066 1006.84L392.284 1029.33C379.733 1026.1 367.364 1022.42 355.196 1018.3L362.64 996.305C361.267 995.84 359.897 995.37 358.529 994.894L350.895 1016.82C338.675 1012.57 326.662 1007.87 314.875 1002.76L324.122 981.457C322.791 980.879 321.463 980.296 320.138 979.707L310.705 1000.93C298.893 995.676 287.311 989.999 275.979 983.918L286.961 963.458C285.684 962.773 284.409 962.082 283.139 961.386L271.98 981.748C260.649 975.539 249.573 968.924 238.771 961.92L251.406 942.437C250.19 941.648 248.977 940.855 247.769 940.056L234.966 959.427C224.195 952.309 213.703 944.803 203.51 936.929L217.706 918.554C216.558 917.667 215.414 916.775 214.274 915.879L199.92 934.132C189.778 926.156 179.94 917.813 170.423 909.123L186.08 891.977C185.009 890.999 183.942 890.016 182.88 889.029L167.074 906.041C157.627 897.264 148.505 888.142 139.728 878.694L156.74 862.89C155.753 861.827 154.771 860.76 153.793 859.689L136.646 875.346C127.956 865.829 119.612 855.99 111.637 845.849L129.891 831.495C128.994 830.355 128.102 829.212 127.216 828.064L108.84 842.259C100.966 832.066 93.46 821.574 86.3418 810.803L105.714 798.001C104.915 796.792 104.122 795.579 103.333 794.363L83.8486 806.997C76.8445 796.196 70.2294 785.119 64.0205 773.788L84.3838 762.631C83.6877 761.36 82.9969 760.087 82.3115 758.81L61.8506 769.789C55.7692 758.457 50.0926 746.876 44.8418 735.063L66.0625 725.632C65.4736 724.307 64.8902 722.979 64.3125 721.648L43.0127 730.894C37.8962 719.106 33.2006 707.093 28.9463 694.874L50.876 687.24C50.4 685.873 49.9293 684.502 49.4648 683.13L27.4678 690.572C23.3507 678.405 19.6695 666.036 16.4424 653.485L38.9326 647.703C38.573 646.305 38.2199 644.903 37.8721 643.5L15.333 649.085C12.2484 636.638 9.60953 624.016 7.43457 611.235L30.3262 607.341C30.0827 605.91 29.8455 604.477 29.6143 603.042L6.68945 606.736C4.65136 594.092 3.06726 581.297 1.95312 568.366L25.0869 566.374C24.9627 564.932 24.8444 563.488 24.7324 562.043L1.58105 563.836C0.592143 551.071 0.0625119 538.177 0.00683594 525.171L23.2266 525.072L23.2217 522.885C23.2217 522.155 23.2234 521.426 23.2266 520.697L0.00683594 520.598C0.0625305 507.592 0.592122 494.698 1.58105 481.933L24.7324 483.727C24.8444 482.281 24.9627 480.837 25.0869 479.396L1.95312 477.402C3.06728 464.472 4.65134 451.676 6.68945 439.032L29.6143 442.728C29.8455 441.293 30.0827 439.859 30.3262 438.429L7.43457 434.533C9.60955 421.753 12.2484 409.13 15.333 396.684L37.8721 402.27C38.2199 400.866 38.573 399.465 38.9326 398.066L16.4424 392.283C19.6695 379.732 23.3507 367.364 27.4678 355.196L49.4648 362.64C49.9293 361.267 50.3999 359.897 50.876 358.529L28.9463 350.894C33.2005 338.675 37.8963 326.662 43.0127 314.875L64.3125 324.121C64.8902 322.79 65.4736 321.462 66.0625 320.138L44.8418 310.705C50.0926 298.893 55.7692 287.311 61.8506 275.979L82.3115 286.96C82.9969 285.683 83.6877 284.409 84.3838 283.139L64.0205 271.98C70.2294 260.649 76.8445 249.573 83.8486 238.771L103.333 251.406C104.122 250.19 104.915 248.977 105.714 247.769L86.3408 234.966C93.4591 224.195 100.966 213.703 108.84 203.51L127.216 217.705C128.102 216.557 128.994 215.414 129.891 214.274L111.637 199.919C119.612 189.778 127.956 179.94 136.646 170.423L153.793 186.08C154.771 185.009 155.753 183.942 156.74 182.88L139.728 167.074C148.505 157.627 157.627 148.505 167.074 139.728L182.88 156.74C183.942 155.753 185.009 154.771 186.08 153.793L170.423 136.646C179.94 127.956 189.778 119.612 199.92 111.637L214.274 129.891C215.414 128.994 216.558 128.102 217.705 127.216L203.51 108.84C213.703 100.966 224.195 93.46 234.966 86.3418L247.769 105.714C248.977 104.915 250.19 104.122 251.406 103.333L238.771 83.8486C249.573 76.8445 260.649 70.2294 271.98 64.0205L283.139 84.3838C284.409 83.6877 285.683 82.9969 286.96 82.3115L275.979 61.8506C287.311 55.7692 298.893 50.0926 310.705 44.8418L320.138 66.0625C321.462 65.4736 322.79 64.8902 324.121 64.3125L314.875 43.0127C326.663 37.8961 338.675 33.2006 350.895 28.9463L358.529 50.876C359.897 50.4 361.267 49.9293 362.64 49.4648L355.196 27.4678C367.364 23.3507 379.732 19.6695 392.283 16.4424L398.066 38.9326C399.465 38.573 400.866 38.2199 402.27 37.8721L396.684 15.333C409.13 12.2484 421.753 9.60955 434.533 7.43457L438.429 30.3262C439.859 30.0827 441.293 29.8455 442.728 29.6143L439.032 6.68945C451.676 4.65134 464.472 3.06728 477.402 1.95312L479.396 25.0869C480.837 24.9627 482.281 24.8444 483.727 24.7324L481.933 1.58105C494.698 0.59212 507.592 0.0625356 520.598 0.00683594L520.697 23.2266C521.426 23.2234 522.155 23.2217 522.885 23.2217C523.614 23.2217 524.344 23.2234 525.072 23.2266L525.171 0.00683594Z" stroke="url(#paint0_linear_1293_158)" stroke-width="46.4442" stroke-dasharray="4.64 39.48"/>
<path d="M946.901 396.447C950.589 408.852 953.75 421.484 956.357 434.316L952.945 435.01C953.247 436.492 953.541 437.978 953.827 439.466L957.247 438.808C959.689 451.497 961.59 464.379 962.928 477.428L959.465 477.783C959.619 479.288 959.765 480.795 959.904 482.304L963.37 481.983C964.554 494.827 965.191 507.829 965.258 520.966L961.777 520.983C961.781 521.746 961.783 522.51 961.783 523.273C961.783 524.037 961.781 524.801 961.777 525.563L965.258 525.58C965.191 538.717 964.554 551.719 963.37 564.562L959.904 564.244C959.765 565.753 959.619 567.259 959.465 568.764L962.928 569.118C961.59 582.167 959.689 595.049 957.247 607.738L953.827 607.081C953.541 608.569 953.247 610.054 952.945 611.537L956.357 612.23C953.75 625.063 950.589 637.695 946.901 650.1L943.563 649.107C943.131 650.561 942.692 652.012 942.245 653.459L945.57 654.485C941.714 666.978 937.324 679.236 932.423 691.231L929.199 689.915C928.626 691.319 928.045 692.719 927.457 694.116L930.666 695.467C925.602 707.502 920.023 719.267 913.957 730.734L910.88 729.106C910.17 730.448 909.453 731.785 908.73 733.118L911.792 734.778C905.575 746.243 898.865 757.403 891.696 768.231L888.795 766.311C887.957 767.576 887.112 768.837 886.262 770.094L889.145 772.046C881.84 782.835 874.074 793.286 865.875 803.371L863.174 801.175C862.216 802.353 861.252 803.526 860.282 804.694L862.96 806.918C854.644 816.934 845.898 826.579 836.747 835.824L834.272 833.375C833.204 834.454 832.13 835.528 831.051 836.597L833.5 839.071C824.255 848.222 814.61 856.968 804.594 865.284L802.37 862.605C801.202 863.575 800.029 864.54 798.851 865.498L801.047 868.199C790.962 876.399 780.511 884.165 769.722 891.469L767.77 888.586C766.513 889.437 765.252 890.281 763.986 891.119L765.907 894.021C755.079 901.189 743.919 907.899 732.454 914.116L730.794 911.055C729.461 911.778 728.124 912.494 726.782 913.203L728.41 916.281C716.943 922.347 705.177 927.925 693.143 932.989L691.792 929.781C690.395 930.369 688.995 930.95 687.591 931.523L688.907 934.747C676.912 939.648 664.654 944.039 652.161 947.895L651.135 944.569C649.688 945.016 648.237 945.456 646.783 945.888L647.775 949.226C635.371 952.914 622.739 956.074 609.906 958.682L609.214 955.27C607.731 955.571 606.245 955.865 604.757 956.151L605.414 959.57C592.724 962.012 579.843 963.914 566.794 965.252L566.439 961.788C564.935 961.942 563.429 962.089 561.92 962.229L562.238 965.694C549.395 966.878 536.393 967.515 523.257 967.582L523.239 964.101C522.476 964.104 521.713 964.106 520.949 964.106C520.185 964.106 519.422 964.104 518.659 964.101L518.642 967.582C505.505 967.515 492.503 966.878 479.659 965.694L479.979 962.229C478.471 962.089 476.963 961.942 475.459 961.788L475.104 965.252C462.055 963.914 449.173 962.012 436.483 959.57L437.142 956.151C435.654 955.865 434.168 955.571 432.686 955.27L431.992 958.682C419.16 956.074 406.528 952.914 394.123 949.226L395.115 945.888C393.662 945.456 392.212 945.016 390.765 944.569L389.737 947.896C377.244 944.039 364.986 939.65 352.99 934.748H352.991L354.309 931.523C352.904 930.95 351.503 930.369 350.106 929.781L348.756 932.99C336.721 927.926 324.955 922.348 313.487 916.281L315.116 913.203C313.775 912.494 312.437 911.778 311.104 911.055L309.444 914.116C297.979 907.899 286.82 901.19 275.991 894.021L277.913 891.119C276.647 890.281 275.386 889.437 274.129 888.586L272.177 891.47C261.387 884.165 250.936 876.399 240.851 868.199L243.048 865.498C241.87 864.54 240.696 863.575 239.528 862.605L237.305 865.284C227.289 856.968 217.643 848.222 208.397 839.071L210.849 836.597C209.769 835.528 208.695 834.454 207.627 833.375L205.151 835.823C196.001 826.578 187.254 816.934 178.938 806.918L181.617 804.694C180.647 803.526 179.684 802.353 178.726 801.175L176.022 803.371C167.823 793.286 160.057 782.835 152.753 772.046L155.637 770.094C154.786 768.837 153.942 767.575 153.104 766.31L150.201 768.231C143.032 757.403 136.324 746.243 130.106 734.777L133.168 733.118C132.445 731.785 131.729 730.448 131.02 729.106L127.941 730.734C121.875 719.267 116.296 707.502 111.232 695.467L114.442 694.116C113.855 692.719 113.273 691.319 112.699 689.915L109.475 691.231C104.573 679.236 100.183 666.978 96.3271 654.485L99.6533 653.459C99.2066 652.012 98.7681 650.561 98.3359 649.107L94.9971 650.101H94.9961C91.308 637.696 88.1488 625.063 85.541 612.23L88.9531 611.537C88.6518 610.054 88.3586 608.569 88.0723 607.081L84.6514 607.738C82.2093 595.049 80.3073 582.167 78.9697 569.118L82.4346 568.764C82.2804 567.259 82.1332 565.753 81.9941 564.244L78.5273 564.562C77.3438 551.719 76.7064 538.717 76.6396 525.58L80.1221 525.563L80.1162 523.273C80.1162 522.51 80.1182 521.746 80.1221 520.983L76.6396 520.966C76.7065 507.829 77.3438 494.827 78.5273 481.983L81.9941 482.304C82.1332 480.795 82.2804 479.288 82.4346 477.783L78.9697 477.428C80.3073 464.379 82.2092 451.497 84.6514 438.808L88.0723 439.466C88.3586 437.978 88.6518 436.492 88.9531 435.01L85.541 434.316C87.9699 422.364 90.8777 410.586 94.2451 399.004L94.9961 396.447L98.3359 397.439C98.768 395.986 99.2067 394.536 99.6533 393.089L96.3262 392.062C100.182 379.569 104.572 367.31 109.474 355.314L109.475 355.315L112.699 356.633C113.273 355.229 113.855 353.828 114.442 352.431L111.232 351.08C116.297 339.045 121.875 327.279 127.941 315.812L131.02 317.44C131.729 316.099 132.445 314.762 133.168 313.429L130.106 311.769C136.324 300.304 143.031 289.144 150.2 278.315L153.104 280.237C153.943 278.972 154.786 277.71 155.637 276.453L152.753 274.501C160.057 263.711 167.823 253.26 176.022 243.175L178.726 245.372C179.684 244.194 180.647 243.021 181.617 241.853L178.938 239.628C187.254 229.612 196.001 219.967 205.151 210.723L207.627 213.172C208.695 212.093 209.769 211.019 210.849 209.951L208.398 207.476C217.643 198.325 227.288 189.578 237.304 181.262L239.528 183.941C240.696 182.972 241.87 182.008 243.048 181.05L240.851 178.347C250.355 170.619 260.185 163.277 270.316 156.343L272.177 155.077L274.129 157.961C275.385 157.11 276.647 156.267 277.913 155.429L275.991 152.524C286.819 145.356 297.98 138.648 309.444 132.431L311.104 135.492C312.438 134.769 313.775 134.053 315.116 133.344L313.487 130.266C324.955 124.199 336.721 118.621 348.756 113.557L350.106 116.766C351.503 116.178 352.904 115.597 354.309 115.023L352.991 111.799L352.99 111.798C364.986 106.896 377.244 102.506 389.737 98.6504L390.765 101.978C392.212 101.531 393.662 101.092 395.115 100.66L394.123 97.3203C406.528 93.6324 419.16 90.473 431.992 87.8652L432.686 91.2773C434.168 90.9761 435.654 90.6829 437.142 90.3965L436.483 86.9756C449.173 84.5334 462.055 82.6315 475.104 81.2939L475.459 84.7588C476.963 84.6046 478.471 84.4574 479.979 84.3184L479.659 80.8516C492.503 79.668 505.505 79.0307 518.642 78.9639L518.659 82.4463C519.422 82.4424 520.185 82.4404 520.949 82.4404C521.713 82.4404 522.476 82.4424 523.239 82.4463L523.256 78.9639C536.393 79.0306 549.395 79.6681 562.238 80.8516L561.92 84.3184C563.429 84.4574 564.935 84.6046 566.439 84.7588L566.794 81.2939C579.843 82.6315 592.725 84.5335 605.414 86.9756L604.757 90.3965C606.245 90.6829 607.731 90.976 609.214 91.2773L609.906 87.8652C622.739 90.473 635.371 93.6324 647.775 97.3203L646.783 100.659C648.237 101.091 649.688 101.531 651.135 101.978L652.161 98.6514C664.654 102.507 676.912 106.897 688.907 111.799H688.908L687.591 115.023C688.995 115.597 690.395 116.179 691.792 116.767L693.143 113.557C705.178 118.621 716.942 124.2 728.41 130.266L726.782 133.344C728.123 134.053 729.461 134.769 730.794 135.492L732.454 132.431C743.919 138.648 755.079 145.357 765.907 152.525L763.986 155.429C765.252 156.267 766.513 157.11 767.77 157.961L769.722 155.077C780.511 162.381 790.962 170.147 801.047 178.347L798.851 181.05C800.029 182.008 801.202 182.972 802.37 183.941L804.594 181.263C814.609 189.578 824.254 198.325 833.499 207.476L831.051 209.951C832.13 211.019 833.204 212.094 834.272 213.173L836.747 210.722C845.898 219.967 854.644 229.613 862.96 239.629L860.282 241.853C861.252 243.021 862.216 244.194 863.174 245.372L865.875 243.176C874.074 253.261 881.841 263.711 889.146 274.501L886.262 276.453C887.112 277.71 887.957 278.971 888.795 280.237L891.697 278.315C898.866 289.144 905.575 300.304 911.792 311.769L908.73 313.429C909.453 314.762 910.17 316.099 910.88 317.44L913.957 315.812C920.023 327.279 925.602 339.045 930.666 351.08L927.457 352.431C928.045 353.828 928.625 355.229 929.199 356.633L932.424 355.315V355.314C937.325 367.31 941.715 379.569 945.571 392.062L942.245 393.089C942.692 394.536 943.131 395.986 943.563 397.439L946.901 396.447Z" stroke="url(#paint1_linear_1293_158)" stroke-width="6.96664" stroke-dasharray="4.64 39.48"/>
<defs>
<linearGradient id="paint0_linear_1293_158" x1="318.768" y1="53.2578" x2="694.768" y2="968.258" gradientUnits="userSpaceOnUse">
<stop offset="0.0719111" stop-color="#DCB678"/>
<stop offset="1" stop-color="#766240" stop-opacity="0"/>
</linearGradient>
<linearGradient id="paint1_linear_1293_158" x1="520.949" y1="78.957" x2="553.839" y2="1264.08" gradientUnits="userSpaceOnUse">
<stop stop-color="#DCB678"/>
<stop offset="1" stop-color="white"/>
</linearGradient>
</defs>
</svg>
