<svg width="421" height="85" viewBox="0 0 421 85" fill="none" xmlns="http://www.w3.org/2000/svg">
<g opacity="0.5">
<circle cx="378.959" cy="41.4408" r="41.4408" fill="#DCB678"/>
<path d="M337.519 0.125C337.519 11.3646 333.041 22.1439 325.071 30.0916C317.101 38.0392 306.291 42.5041 295.019 42.5041C283.748 42.5041 272.938 38.0392 264.968 30.0916C256.997 22.1439 252.52 11.3647 252.52 0.125007L295.019 0.125L337.519 0.125Z" fill="#DCB678"/>
<path d="M337.519 84.875C337.519 73.6353 333.041 62.856 325.071 54.9084C317.101 46.9608 306.291 42.4959 295.019 42.4959C283.748 42.4959 272.938 46.9608 264.968 54.9084C256.997 62.8561 252.52 73.6353 252.52 84.875L295.019 84.875L337.519 84.875Z" fill="#DCB678"/>
<path d="M173.18 0.000905722C184.42 0.000905231 195.199 4.47852 203.147 12.4487C211.095 20.4189 215.559 31.2289 215.559 42.5004C215.559 53.772 211.095 64.582 203.147 72.5522C195.199 80.5224 184.42 85 173.18 85L173.18 42.5005L173.18 0.000905722Z" fill="#DCB678"/>
<path d="M257.94 0.000905722C246.7 0.000907196 235.921 4.47853 227.973 12.4487C220.026 20.4189 215.561 31.2289 215.561 42.5005C215.561 53.772 220.026 64.582 227.973 72.5522C235.921 80.5224 246.7 85 257.94 85L257.94 42.5005L257.94 0.000905722Z" fill="#DCB678"/>
<circle cx="126.441" cy="41.4408" r="41.4408" fill="#DCB678"/>
<path d="M84.9991 0.125C84.9991 11.3646 80.5215 22.1439 72.5513 30.0916C64.5811 38.0392 53.7711 42.5041 42.4996 42.5041C31.228 42.5041 20.418 38.0392 12.4478 30.0916C4.47762 22.1439 1.70196e-06 11.3647 0 0.125007L42.4995 0.125L84.9991 0.125Z" fill="#DCB678"/>
<path d="M84.9991 84.875C84.9991 73.6353 80.5215 62.856 72.5513 54.9084C64.5811 46.9608 53.7711 42.4959 42.4995 42.4959C31.228 42.4959 20.418 46.9608 12.4478 54.9084C4.47762 62.8561 7.1936e-07 73.6353 0 84.875L42.4995 84.875L84.9991 84.875Z" fill="#DCB678"/>
</g>
</svg>
