<svg width="89" height="89" viewBox="0 0 89 89" fill="none" xmlns="http://www.w3.org/2000/svg">
<circle cx="44.5089" cy="44.3107" r="28.5538" stroke="#DCB678" stroke-width="0.607527"/>
<circle cx="44.6598" cy="44.4635" r="39.9449" stroke="#DCB678" stroke-width="0.607527"/>
<line opacity="0.5" x1="32.8226" y1="64.6623" x2="56.235" y2="24.1108" stroke="#DCB678" stroke-width="0.303764"/>
<line opacity="0.5" y1="-0.151882" x2="46.8249" y2="-0.151882" transform="matrix(-0.5 -0.866025 -0.866025 0.5 56.3662 64.7383)" stroke="#DCB678" stroke-width="0.303764"/>
<line opacity="0.5" y1="-0.151882" x2="46.8249" y2="-0.151882" transform="matrix(-1 8.74228e-08 8.74228e-08 1 68.0713 44.4609)" stroke="#DCB678" stroke-width="0.303764"/>
<g opacity="0.4">
<path d="M10.8103 33.364C10.6396 33.301 10.4915 33.308 10.3661 33.385C10.2367 33.4606 10.1355 33.5974 10.0624 33.7952L9.6946 34.7901L10.7244 35.1707L11.09 34.1817C11.1631 33.9838 11.1771 33.8149 11.1319 33.6747C11.0843 33.5293 10.9771 33.4257 10.8103 33.364ZM12.8195 36.8379L8.74681 35.3325L9.44577 33.4416C9.55043 33.1585 9.68709 32.9378 9.85575 32.7798C10.0205 32.6202 10.2023 32.5221 10.401 32.4853C10.5973 32.4433 10.7963 32.4595 10.998 32.5341C11.1765 32.6 11.3155 32.6889 11.4153 32.8007C11.515 32.9125 11.5803 33.0403 11.6109 33.1839C11.6392 33.3222 11.6396 33.47 11.6123 33.6274L11.6588 33.6446C11.7481 33.4748 11.8551 33.3403 11.98 33.2409C12.101 33.1402 12.2423 33.08 12.4039 33.0603C12.5654 33.0407 12.7432 33.0667 12.9371 33.1384C13.1505 33.2173 13.3212 33.3399 13.4492 33.5063C13.5734 33.6712 13.6467 33.8725 13.6691 34.11C13.6891 34.3422 13.6475 34.598 13.5443 34.8772L12.8195 36.8379ZM12.4524 35.8095L12.8481 34.7389C12.9241 34.5334 12.9383 34.3579 12.8906 34.2124C12.8406 34.0616 12.7282 33.954 12.5537 33.8895C12.3714 33.8221 12.2108 33.8332 12.0718 33.9229C11.9343 34.0088 11.8282 34.1525 11.7537 34.3542L11.3644 35.4073L12.4524 35.8095Z" fill="#DCB678"/>
<path d="M14.526 24.324L14.3914 24.5022L16.5271 27.7161L16.0076 28.4041L13.4807 24.5451L14.3142 23.4413L18.7175 24.8153L18.198 25.5034L14.526 24.324ZM15.2194 26.6275L16.7444 24.6079L17.3038 25.0303L15.7788 27.0499L15.2194 26.6275Z" fill="#DCB678"/>
<path d="M22.3072 16.7873C22.1917 16.631 22.0513 16.5419 21.886 16.5201C21.7241 16.4958 21.5433 16.5574 21.3438 16.7049L20.6006 17.2544L21.3639 18.2869L22.1071 17.7374C22.2401 17.6391 22.3351 17.538 22.3921 17.4342C22.4466 17.3271 22.4655 17.2205 22.4489 17.1145C22.4331 17.0028 22.3859 16.8937 22.3072 16.7873ZM20.9471 16.1266C21.2298 15.9176 21.4994 15.7954 21.756 15.76C22.0135 15.7187 22.2486 15.7481 22.4613 15.848C22.6749 15.9421 22.853 16.0856 22.9955 16.2784C23.0914 16.4081 23.164 16.555 23.2133 16.7191C23.2602 16.8799 23.2731 17.0503 23.252 17.2305C23.2284 17.4073 23.1602 17.5863 23.0473 17.7675C22.9377 17.9462 22.7699 18.1192 22.5437 18.2863L21.7806 18.8505L22.7651 20.1823L22.0917 20.68L19.5106 17.1885L20.9471 16.1266ZM22.7569 17.7816L24.8501 18.6409L24.0969 19.1977L22.0436 18.3089L22.7569 17.7816Z" fill="#DCB678"/>
<path d="M30.8956 11.5834C30.833 11.4126 30.7316 11.3044 30.5916 11.2589C30.4501 11.2094 30.2804 11.221 30.0824 11.2936L29.0866 11.6588L29.4645 12.6896L30.4546 12.3265C30.6526 12.2539 30.7903 12.155 30.8677 12.0297C30.9475 11.8991 30.9568 11.7504 30.8956 11.5834ZM29.5538 15.3656L28.0591 11.289L29.9518 10.595C30.2352 10.491 30.4918 10.452 30.7215 10.4779C30.9498 10.4999 31.1423 10.5746 31.2992 10.7021C31.4585 10.8243 31.5752 10.9863 31.6492 11.1882C31.7147 11.3668 31.7372 11.5303 31.7167 11.6787C31.6963 11.8272 31.6414 11.9596 31.5519 12.0761C31.465 12.1873 31.3527 12.2835 31.2151 12.3648L31.2322 12.4114C31.4194 12.3692 31.5912 12.3634 31.7478 12.3941C31.903 12.4209 32.0404 12.4894 32.1601 12.5997C32.2798 12.7099 32.3753 12.8621 32.4465 13.0562C32.5248 13.2698 32.5421 13.4792 32.4985 13.6846C32.4535 13.8861 32.3478 14.0724 32.1815 14.2435C32.0177 14.4093 31.796 14.5434 31.5164 14.6459L29.5538 15.3656ZM30.0987 14.4192L31.1703 14.0263C31.3761 13.9508 31.5189 13.8478 31.5987 13.7172C31.681 13.5814 31.6902 13.4261 31.6261 13.2513C31.5592 13.0689 31.4465 12.9538 31.2881 12.9062C31.1336 12.8571 30.9554 12.8696 30.7535 12.9437L29.6994 13.3302L30.0987 14.4192Z" fill="#DCB678"/>
<path d="M41.2238 8.49264L39.0141 8.63714L39.0862 9.73889L40.7388 9.63083L40.7829 10.3055L39.1303 10.4136L39.206 11.571L41.4157 11.4265L41.4614 12.126L38.4161 12.3251L38.1328 7.99234L41.1781 7.79321L41.2238 8.49264Z" fill="#DCB678"/>
<path d="M50.562 9.51315C50.6037 9.32332 50.5784 9.15899 50.4861 9.02016C50.3979 8.88222 50.2326 8.78663 49.9903 8.73337L49.0876 8.535L48.812 9.78908L49.7147 9.98744C49.8762 10.0229 50.0149 10.028 50.1305 10.0026C50.2471 9.97318 50.3398 9.91735 50.4087 9.8351C50.4825 9.74971 50.5336 9.64239 50.562 9.51315ZM50.165 8.05411C50.5083 8.12955 50.7777 8.25226 50.9732 8.42224C51.1736 8.58907 51.3062 8.78544 51.3708 9.01135C51.4404 9.23411 51.4495 9.46261 51.398 9.69687C51.3634 9.85439 51.3005 10.0057 51.2094 10.1508C51.1191 10.2918 50.9992 10.4137 50.8496 10.5163C50.7009 10.6149 50.5212 10.6812 50.3105 10.7154C50.1038 10.7504 49.8631 10.7377 49.5885 10.6774L48.6616 10.4737L48.3061 12.0912L47.4882 11.9115L48.4202 7.67068L50.165 8.05411ZM50.1088 10.5059L50.8385 12.6477L49.9237 12.4467L49.2425 10.3155L50.1088 10.5059Z" fill="#DCB678"/>
<path d="M57.5155 13.2696C57.4788 13.3813 57.4707 13.4921 57.4914 13.6019C57.5121 13.7117 57.5597 13.8149 57.6345 13.9116C57.7148 14.0066 57.8223 14.0904 57.957 14.163C58.1681 14.2768 58.3519 14.3149 58.5085 14.2772C58.6671 14.2358 58.7836 14.146 58.8582 14.0077C58.9171 13.8985 58.9334 13.7898 58.9071 13.6817C58.8809 13.5736 58.8214 13.4616 58.7288 13.3459C58.6398 13.2321 58.5298 13.1094 58.3988 12.9777C58.2767 12.8555 58.1585 12.7307 58.044 12.6032C57.9295 12.4757 57.8347 12.3423 57.7594 12.2031C57.6842 12.0638 57.6443 11.9155 57.6399 11.7581C57.6412 11.599 57.6918 11.4266 57.7919 11.241C57.9175 11.0081 58.0809 10.8401 58.2821 10.7372C58.4869 10.6362 58.7119 10.5978 58.9572 10.622C59.2026 10.6463 59.4563 10.729 59.7183 10.8704C59.9404 10.9901 60.1229 11.1308 60.2659 11.2925C60.4109 11.4505 60.5101 11.6238 60.5635 11.8123C60.6225 11.9992 60.633 12.1975 60.595 12.4072L59.8125 12.2249C59.8375 12.135 59.8347 12.0442 59.8042 11.9526C59.7738 11.861 59.7237 11.7753 59.654 11.6954C59.5863 11.6119 59.5014 11.5427 59.3995 11.4877C59.2923 11.4252 59.1834 11.3876 59.0728 11.3749C58.9621 11.3623 58.8609 11.3758 58.769 11.4155C58.6771 11.4552 58.6066 11.5206 58.5576 11.6116C58.5026 11.7135 58.4894 11.8121 58.5179 11.9073C58.5484 11.9989 58.6028 12.094 58.6811 12.1927C58.7615 12.2877 58.8545 12.3895 58.9603 12.4983C59.0897 12.6244 59.2151 12.7578 59.3365 12.8984C59.46 13.0355 59.5618 13.182 59.6421 13.338C59.7244 13.4905 59.7684 13.6528 59.7741 13.825C59.7836 13.9992 59.7343 14.1864 59.6264 14.3866C59.5125 14.5977 59.3585 14.7614 59.1644 14.8775C58.9738 14.9956 58.751 15.0516 58.4959 15.0455C58.2407 15.0395 57.9621 14.955 57.66 14.7921C57.4125 14.6587 57.2064 14.5006 57.0419 14.3179C56.8809 14.1371 56.7722 13.9423 56.7158 13.7333C56.6613 13.5207 56.666 13.3072 56.73 13.0927L57.5155 13.2696Z" fill="#DCB678"/>
<path d="M67.1846 15.2837L67.779 15.8735L66.5163 17.146L67.8813 18.5004L69.1439 17.2279L69.7384 17.8178L66.68 20.8999L66.0856 20.3101L67.3876 18.998L66.0226 17.6435L64.7206 18.9557L64.1262 18.3658L67.1846 15.2837Z" fill="#DCB678"/>
<path d="M71.7871 27.1034C71.6447 26.8326 71.5585 26.5532 71.5286 26.2653C71.4986 25.9773 71.5225 25.6984 71.6002 25.4286C71.6835 25.1606 71.8171 24.9127 72.0012 24.6851C72.1888 24.4556 72.4272 24.2648 72.7164 24.1128C73.0055 23.9607 73.296 23.8734 73.5878 23.8508C73.8796 23.8281 74.1595 23.8585 74.4276 23.9418C74.6976 24.0287 74.9427 24.1661 75.163 24.354C75.3832 24.5418 75.5646 24.7712 75.707 25.042C75.8514 25.3165 75.9376 25.5959 75.9656 25.8802C75.9955 26.1681 75.9698 26.448 75.8884 26.7197C75.8071 26.9914 75.6734 27.2393 75.4875 27.4632C75.3035 27.6908 75.0669 27.8806 74.7778 28.0327C74.4886 28.1847 74.1963 28.273 73.9009 28.2976C73.611 28.3239 73.3311 28.2935 73.0611 28.2066C72.7948 28.1177 72.5515 27.9793 72.3312 27.7915C72.1128 27.6073 71.9315 27.3779 71.7871 27.1034ZM72.4214 26.7769C72.5426 27.0075 72.7053 27.1836 72.9094 27.3052C73.1191 27.4285 73.3498 27.4894 73.6013 27.488C73.8547 27.4902 74.1151 27.421 74.3822 27.2805C74.6494 27.14 74.8539 26.9647 74.9957 26.7546C75.1395 26.5482 75.2181 26.3247 75.2317 26.0839C75.2509 25.8449 75.1998 25.6101 75.0785 25.3795C74.9534 25.1416 74.786 24.961 74.5763 24.8377C74.3722 24.7161 74.1444 24.656 73.8929 24.6575C73.6413 24.6589 73.382 24.7299 73.1148 24.8704C72.8513 25.009 72.6458 25.1825 72.4984 25.3908C72.351 25.5991 72.2695 25.8219 72.2541 26.0589C72.2405 26.2997 72.2963 26.539 72.4214 26.7769Z" fill="#DCB678"/>
<path d="M78.0256 35.702C78.0562 35.8646 78.1059 35.9941 78.1746 36.0905C78.2474 36.1862 78.3351 36.2496 78.4377 36.2807C78.5452 36.3151 78.664 36.3201 78.794 36.2955C78.9932 36.258 79.1364 36.1699 79.2239 36.0314C79.3122 35.8969 79.3333 35.7077 79.2873 35.4639L79.1159 34.5557L77.8542 34.7938L78.0256 35.702ZM78.9528 37.1367C78.7943 37.1666 78.6304 37.1681 78.4612 37.1411C78.2961 37.1133 78.137 37.0508 77.9839 36.9534C77.835 36.8553 77.7035 36.716 77.5895 36.5355C77.4762 36.3591 77.3935 36.1327 77.3414 35.8564L77.1654 34.9238L75.538 35.2309L75.3827 34.408L79.6494 33.6029L79.9807 35.3583C80.0458 35.7037 80.0386 35.9997 79.9588 36.2462C79.8839 36.496 79.7552 36.6949 79.5728 36.843C79.3951 36.9943 79.1884 37.0922 78.9528 37.1367Z" fill="#DCB678"/>
<path d="M78.4979 50.8314C78.8076 50.9353 79.0721 51.083 79.2915 51.2743C79.5147 51.467 79.6869 51.6883 79.808 51.9383C79.9331 52.1896 80.0045 52.4578 80.0222 52.7429C80.0387 53.032 79.9976 53.3235 79.899 53.6175C79.7569 54.0409 79.5294 54.3812 79.2163 54.6382C78.9059 54.9004 78.5349 55.0507 78.1033 55.0891L78.1321 54.3595C78.3257 54.3285 78.4952 54.2654 78.6405 54.1702C78.7846 54.079 78.9051 53.9667 79.0021 53.8335C79.0991 53.7003 79.1733 53.5573 79.2246 53.4044C79.3088 53.1535 79.323 52.9096 79.2672 52.6728C79.2153 52.4373 79.1 52.2285 78.9212 52.0464C78.7411 51.8682 78.5099 51.7318 78.2276 51.6371C77.9453 51.5424 77.6786 51.5118 77.4275 51.5453C77.179 51.5841 76.961 51.6811 76.7737 51.8363C76.5865 51.9916 76.4507 52.1947 76.3665 52.4456C76.3139 52.6024 76.2855 52.7652 76.2813 52.9338C76.2796 53.1078 76.3152 53.2811 76.3881 53.4538C76.461 53.6266 76.5797 53.7929 76.7442 53.9528L76.3429 54.5444C75.9721 54.2324 75.7348 53.8737 75.631 53.4681C75.531 53.0638 75.5541 52.6441 75.7001 52.2089C75.7987 51.9149 75.9418 51.6575 76.1292 51.4369C76.3153 51.2202 76.534 51.0493 76.7853 50.9242C77.0366 50.7992 77.3075 50.7265 77.5978 50.7061C77.8921 50.6871 78.1921 50.7288 78.4979 50.8314Z" fill="#DCB678"/>
<path d="M76.4971 62.3245L76.0044 63.0015L73.7875 61.3883C73.6237 61.2691 73.4606 61.2016 73.2982 61.1857C73.1392 61.1723 72.99 61.2018 72.8504 61.2741C72.7084 61.3497 72.5826 61.4628 72.4731 61.6133C72.3612 61.7671 72.2911 61.9232 72.2628 62.0816C72.2345 62.24 72.2511 62.3927 72.3128 62.5399C72.3778 62.6895 72.4923 62.8239 72.6561 62.9431L74.8729 64.5563L74.3802 65.2334L72.1985 63.6458C71.9678 63.4779 71.7964 63.2918 71.6842 63.0874C71.5721 62.8831 71.5103 62.6693 71.4988 62.4462C71.4849 62.2264 71.514 62.0072 71.5861 61.7886C71.6591 61.5758 71.765 61.3741 71.9037 61.1835C72.0886 60.9294 72.3115 60.7285 72.5724 60.5808C72.8309 60.4365 73.1091 60.3704 73.407 60.3827C73.705 60.3949 74.0077 60.513 74.3154 60.7368L76.4971 62.3245Z" fill="#DCB678"/>
<path d="M69.9415 70.75L67.1431 72.8906L66.7172 72.3338L67.7814 71.5198L65.5693 68.6278L66.2344 68.119L68.4465 71.0111L69.5157 70.1933L69.9415 70.75Z" fill="#DCB678"/>
<path d="M52.0123 79.1804C52.0748 79.2337 52.1497 79.2725 52.237 79.297C52.3244 79.3214 52.4294 79.3243 52.552 79.3057C52.7565 79.2747 52.8988 79.1925 52.9789 79.0591C53.0556 78.9303 53.0806 78.7781 53.054 78.6023C53.0336 78.4673 52.9827 78.3663 52.9014 78.2992C52.8167 78.2367 52.7085 78.1987 52.5768 78.1852C52.4416 78.1764 52.2858 78.1833 52.1094 78.2059L50.5945 78.4354L50.4942 77.773L52.0029 77.5444C52.33 77.4949 52.5653 77.4195 52.7089 77.3183C52.8484 77.2177 52.9002 77.0488 52.8643 76.8117C52.8457 76.689 52.8074 76.5881 52.7494 76.5091C52.6914 76.4301 52.6141 76.3749 52.5173 76.3435C52.4164 76.3128 52.2904 76.3089 52.1391 76.3318C51.906 76.3671 51.7512 76.4491 51.6745 76.5779C51.5978 76.7066 51.578 76.8936 51.6152 77.1389L51.7509 78.0343L50.9413 78.157L50.8057 77.2616C50.7542 76.9222 50.7741 76.639 50.8651 76.4119C50.9521 76.1854 51.0989 76.0084 51.3054 75.8809C51.5078 75.7541 51.7563 75.6683 52.0506 75.6237C52.3614 75.5767 52.6328 75.5878 52.865 75.6572C53.0972 75.7266 53.2841 75.8425 53.4259 76.0051C53.5642 76.1724 53.6516 76.3766 53.6881 76.6178C53.7166 76.8059 53.7101 76.97 53.6686 77.1101C53.623 77.2509 53.5495 77.3728 53.448 77.4761C53.3465 77.5793 53.2236 77.6648 53.0791 77.7327L53.0828 77.7572C53.1994 77.7814 53.3167 77.8243 53.4348 77.8858C53.5494 77.9521 53.6508 78.0413 53.7388 78.1535C53.8235 78.2703 53.8785 78.4125 53.9039 78.5802C53.9373 78.8009 53.9148 79.0114 53.8364 79.2115C53.7539 79.4122 53.6167 79.5835 53.4249 79.7255C53.2332 79.8675 52.986 79.9614 52.6834 80.0073C52.4258 80.0463 52.191 80.0421 51.9789 79.9948C51.7627 79.9481 51.578 79.8611 51.4249 79.7337L52.0123 79.1804ZM51.4249 79.7337L52.0123 79.1804L51.4249 79.7337ZM52.0603 78.2133C51.9949 78.2232 51.9392 78.2421 51.8932 78.27C51.8473 78.2979 51.8146 78.3446 51.7953 78.4103C51.7759 78.476 51.775 78.566 51.7923 78.6805L51.8341 78.9565L51.0614 79.0736L50.9564 78.3806L50.2756 78.4837L50.1753 77.8213L50.856 77.7182L50.7501 77.0191C50.7247 76.8514 50.6702 76.7405 50.5867 76.6862C50.5038 76.636 50.3929 76.6215 50.2539 76.6425C50.2246 76.6428 50.1899 76.648 50.1496 76.6583C50.1053 76.6692 50.0571 76.6828 50.0052 76.699L49.903 76.0244C49.97 75.9975 50.0356 75.975 50.0998 75.9569C50.164 75.9389 50.2268 75.9252 50.2881 75.9159C50.4802 75.8868 50.6675 75.8939 50.8497 75.9374C51.0285 75.9856 51.1837 76.0855 51.3154 76.237C51.4478 76.3926 51.5353 76.6115 51.578 76.8936L51.6849 77.5989L52.1265 77.532L52.2259 78.1882L52.0603 78.2133Z" fill="#DCB678"/>
<path d="M35.9434 76.7326C35.9637 76.6167 35.9557 76.506 35.9194 76.4003C35.8831 76.2946 35.821 76.1994 35.7331 76.1145C35.64 76.0321 35.5215 75.9646 35.3778 75.9122C35.1524 75.83 34.965 75.8189 34.8155 75.8788C34.6646 75.9426 34.5622 76.0483 34.5083 76.1959C34.4658 76.3124 34.4654 76.4223 34.507 76.5255C34.5485 76.6287 34.6235 76.7309 34.7319 76.8321C34.8363 76.9318 34.9629 77.0374 35.1115 77.1488C35.2499 77.2521 35.3849 77.3586 35.5166 77.4683C35.6483 77.5779 35.7614 77.6962 35.8559 77.8232C35.9505 77.9501 36.0113 78.0911 36.0383 78.2462C36.0601 78.4038 36.0348 78.5817 35.9626 78.7798C35.8719 79.0284 35.7344 79.2182 35.5502 79.3491C35.3621 79.4786 35.1449 79.549 34.8987 79.5604C34.6524 79.5718 34.3894 79.5265 34.1097 79.4245C33.8728 79.338 33.6718 79.2251 33.507 79.0858C33.3407 78.9503 33.2176 78.7931 33.1376 78.6143C33.0522 78.4379 33.0132 78.2432 33.0205 78.0301L33.8212 78.0977C33.8094 78.1903 33.8253 78.2797 33.8686 78.3659C33.912 78.4522 33.9739 78.5298 34.0544 78.5988C34.1335 78.6716 34.2274 78.7279 34.3362 78.7676C34.4513 78.814 34.5645 78.8355 34.6758 78.832C34.7871 78.8286 34.8853 78.8006 34.9705 78.7481C35.0557 78.6955 35.116 78.6207 35.1515 78.5236C35.1911 78.4148 35.19 78.3153 35.1481 78.2252C35.1047 78.1389 35.0371 78.0527 34.9453 77.9664C34.8522 77.884 34.7454 77.7966 34.625 77.7043C34.4788 77.5981 34.3355 77.4842 34.195 77.3625C34.0531 77.2447 33.9312 77.1144 33.8292 76.9716C33.7259 76.8326 33.6589 76.6784 33.6283 76.5087C33.5939 76.3377 33.6156 76.1454 33.6936 75.9317C33.7758 75.7064 33.9045 75.5223 34.0799 75.3793C34.2514 75.235 34.4638 75.1474 34.7172 75.1166C34.9705 75.0858 35.2584 75.1292 35.5809 75.2468C35.845 75.3432 36.0717 75.4699 36.2609 75.6269C36.4463 75.7826 36.5819 75.9597 36.6679 76.1583C36.7525 76.3609 36.7786 76.5729 36.7462 76.7944L35.9434 76.7326Z" fill="#DCB678"/>
<path d="M26.0904 76.1381L25.4173 75.64L26.4836 74.199L24.9379 73.0552L23.8716 74.4962L23.1985 73.9981L25.7813 70.5078L26.4544 71.0059L25.3549 72.4918L26.9006 73.6356L28.0001 72.1497L28.6733 72.6479L26.0904 76.1381Z" fill="#DCB678"/>
<path d="M16.9511 67.3269L17.0857 67.5051L20.7613 66.3301L21.281 67.0181L16.8779 68.3928L16.0441 67.2891L18.5705 63.4297L19.0901 64.1177L16.9511 67.3269ZM19.3565 67.2902L17.8311 65.2708L18.3904 64.8483L19.9158 66.8677L19.3565 67.2902Z" fill="#DCB678"/>
<path d="M10.6592 58.2519L10.341 57.4173L14.9661 57.3604L15.3262 58.3051L11.8345 61.3355L11.5164 60.5008L14.3452 58.1347L10.6592 58.2519Z" fill="#DCB678"/>
<path d="M8.74476 47.839L8.91399 50.0469L10.0149 49.9625L9.88831 48.3112L10.5624 48.2595L10.689 49.9109L11.8456 49.8222L11.6763 47.6143L12.3752 47.5607L12.6084 50.6036L8.2791 50.9354L8.04589 47.8925L8.74476 47.839Z" fill="#DCB678"/>
</g>
<circle cx="78.986" cy="43.8561" r="1.06317" fill="#DCB678"/>
<circle cx="44.6608" cy="40.5133" r="0.759409" fill="#DCB678"/>
<circle opacity="0.7" cx="48.0026" cy="42.3375" r="0.759409" fill="#DCB678"/>
<circle opacity="0.5" cx="48.0026" cy="45.9821" r="0.759409" fill="#DCB678"/>
<circle opacity="0.1" cx="41.319" cy="42.6383" r="0.759409" fill="#DCB678"/>
<circle opacity="0.4" cx="44.6608" cy="47.8024" r="0.759409" fill="#DCB678"/>
<circle opacity="0.2" cx="41.319" cy="45.9821" r="0.759409" fill="#DCB678"/>
<circle cx="10.3356" cy="42.0319" r="1.06317" fill="#DCB678"/>
<path d="M31.4043 40.992C31.8428 40.992 32.2287 40.8707 32.562 40.628C32.904 40.3853 33.075 40.0213 33.075 39.536C33.075 39.0416 32.8908 38.6641 32.5225 38.4035C32.1629 38.1428 31.6455 37.9181 30.9702 37.7294C30.3037 37.5317 29.8169 37.3609 29.51 37.2171C29.2118 37.0733 28.9268 36.8845 28.6549 36.6508C28.1111 36.1835 27.8393 35.4599 27.8393 34.4803C27.8393 33.6803 28.1155 32.9928 28.668 32.4175C29.2293 31.8423 29.9923 31.5547 30.957 31.5547C31.4218 31.5547 31.9042 31.6266 32.4041 31.7704C32.9128 31.9052 33.2285 31.9726 33.3513 31.9726C33.474 31.9726 33.5837 31.8827 33.6801 31.703H33.8248L33.9169 34.4263H33.7065C33.2855 33.6444 32.8426 33.0197 32.3778 32.5523C31.9217 32.076 31.4218 31.8378 30.8781 31.8378C30.3431 31.8378 29.9265 31.9681 29.6284 32.2288C29.3302 32.4804 29.1811 32.822 29.1811 33.2534C29.1811 33.6758 29.3565 34.0039 29.7073 34.2376C30.0669 34.4623 30.5054 34.6465 31.0228 34.7903C31.5402 34.9341 31.8779 35.033 32.0358 35.0869C32.2024 35.1409 32.4041 35.2173 32.6409 35.3161C32.8865 35.406 33.0838 35.5049 33.2329 35.6127C33.3907 35.7116 33.553 35.8419 33.7196 36.0037C33.895 36.1565 34.0309 36.3273 34.1274 36.516C34.3642 36.9474 34.4826 37.4597 34.4826 38.053C34.4826 39.0236 34.1844 39.8056 33.5881 40.3988C33.0005 40.983 32.2243 41.2751 31.2596 41.2751C30.7597 41.2751 30.1853 41.2077 29.5363 41.0729C28.8961 40.9381 28.5409 40.8707 28.4707 40.8707C28.3479 40.8707 28.2295 41.0055 28.1155 41.2751H27.9314L27.7998 38.0664H28.0234C28.4093 38.8484 28.9005 39.5315 29.4968 40.1157C30.102 40.6999 30.7378 40.992 31.4043 40.992Z" fill="#DCB678"/>
<path d="M30.7886 53.5059C30.7886 54.3194 30.9247 54.9427 31.1968 55.376C31.4777 55.8092 31.978 56.0259 32.6977 56.0259C33.4175 56.0259 33.9705 55.8004 34.3567 55.3495C34.7429 54.8985 34.936 54.2133 34.936 53.2937V47.2989H34.0802V47.0469H36.0025V47.2989H35.2783V53.2009C35.2783 54.2973 35.0369 55.1151 34.5542 55.6545C34.0714 56.1939 33.2156 56.4635 31.9868 56.4635C30.7667 56.4635 29.8319 56.2071 29.1823 55.6943C28.5416 55.1815 28.2212 54.3017 28.2212 53.055V47.2989H27.4971V47.0469H31.6444V47.2989H30.7886V53.5059Z" fill="#DCB678"/>
<path d="M45.6934 62.1335L48.0495 55.502H46.9933V55.25H49.0651V55.502H48.4286L45.1653 64.6667H44.0279L40.575 55.502H39.9521V55.25H44.38V55.502H43.4186L45.6934 62.1335Z" fill="#DCB678"/>
<path d="M58.7069 55.6007L57.7314 52.7197H55.0858L54.0569 55.6007H55.059V55.8542H53.0146V55.6007H53.6427L57.05 46.4375H58.1457L61.5129 55.6007H62.1276V55.8542H57.7582V55.6007H58.7069ZM56.4621 48.9317L55.206 52.4263H57.6245L56.4621 48.9317Z" fill="#DCB678"/>
<path d="M54.5322 30.9453H59.3128V31.2413H57.9052V40.066H58.3832C59.1357 40.066 59.7333 39.8329 60.1759 39.3665C60.6274 38.9002 61.0833 38.1827 61.5437 37.2141H61.8226L61.5702 40.362H54.5322V40.066H55.3157V31.2413H54.5322V30.9453Z" fill="#DCB678"/>
<path d="M41.4697 24.2656H48.3245L48.4563 27.0637H48.219C47.8939 26.0952 47.516 25.436 47.0853 25.0862C46.6635 24.7365 46.0308 24.5616 45.1871 24.5616H44.818V28.9336H45.4112C45.833 28.9336 46.1846 28.7767 46.4658 28.4628C46.747 28.1489 46.9403 27.7184 47.0458 27.1713H47.2435V31.1532H47.0194C46.8788 30.4806 46.6811 30.0008 46.4262 29.7138C46.1802 29.4269 45.8418 29.2834 45.4112 29.2834H44.818V33.3863H46.4526V33.6823H41.4697V33.3863H42.2475V24.5616H41.4697V24.2656Z" fill="#DCB678"/>
</svg>
