<svg width="55" height="272" viewBox="0 0 55 272" fill="none" xmlns="http://www.w3.org/2000/svg">
<g opacity="0.5">
<circle cx="26.8006" cy="26.801" r="26.8006" transform="rotate(-90 26.8006 26.801)" fill="#DCB678"/>
<path d="M0.0781345 53.5997C7.34704 53.5997 14.3182 56.4954 19.4581 61.6499C24.598 66.8044 27.4856 73.7954 27.4856 81.085C27.4856 88.3745 24.598 95.3655 19.4581 100.52C14.3182 105.675 7.34705 108.57 0.0781416 108.57L0.0781357 81.085L0.0781345 53.5997Z" fill="#DCB678"/>
<path d="M54.8926 53.5997C47.6237 53.5997 40.6525 56.4954 35.5126 61.6499C30.3727 66.8044 27.4851 73.7954 27.4851 81.085C27.4851 88.3746 30.3727 95.3656 35.5126 100.52C40.6525 105.675 47.6237 108.57 54.8926 108.57L54.8926 81.085L54.8926 53.5997Z" fill="#DCB678"/>
<path d="M7.29193e-05 159.875C7.22839e-05 152.606 2.89584 145.635 8.05033 140.495C13.2048 135.355 20.1958 132.468 27.4854 132.468C34.7749 132.468 41.7659 135.355 46.9204 140.495C52.0749 145.635 54.9707 152.606 54.9707 159.875L27.4854 159.875L7.29193e-05 159.875Z" fill="#DCB678"/>
<path d="M7.29193e-05 105.063C7.41903e-05 112.331 2.89584 119.303 8.05034 124.443C13.2048 129.582 20.1958 132.47 27.4854 132.47C34.775 132.47 41.766 129.582 46.9205 124.442C52.0749 119.303 54.9707 112.331 54.9707 105.063L27.4854 105.063L7.29193e-05 105.063Z" fill="#DCB678"/>
<circle cx="26.8006" cy="190.106" r="26.8006" transform="rotate(-90 26.8006 190.106)" fill="#DCB678"/>
<path d="M0.0781345 216.908C7.34704 216.908 14.3182 219.804 19.4581 224.959C24.598 230.113 27.4856 237.104 27.4856 244.394C27.4856 251.683 24.598 258.674 19.4581 263.829C14.3182 268.983 7.34705 271.879 0.0781416 271.879L0.0781357 244.394L0.0781345 216.908Z" fill="#DCB678"/>
<path d="M54.8926 216.908C47.6237 216.908 40.6525 219.804 35.5126 224.959C30.3727 230.113 27.4851 237.104 27.4851 244.394C27.4851 251.683 30.3727 258.674 35.5126 263.829C40.6525 268.983 47.6237 271.879 54.8926 271.879L54.8926 244.394L54.8926 216.908Z" fill="#DCB678"/>
</g>
</svg>
