<svg width="154" height="37" viewBox="0 0 154 37" fill="none" xmlns="http://www.w3.org/2000/svg">
<g filter="url(#filter0_f_1244_384)">
<path d="M140.597 32.1256C141.936 32.1256 143.115 31.764 144.133 31.0407C145.178 30.3175 145.7 29.2327 145.7 27.7862C145.7 26.313 145.137 25.1879 144.012 24.4111C142.914 23.6343 141.334 22.9647 139.271 22.4022C137.235 21.8129 135.749 21.3039 134.811 20.8754C133.9 20.4468 133.03 19.8843 132.2 19.1878C130.539 17.7949 129.708 15.6386 129.708 12.7189C129.708 10.335 130.552 8.28581 132.24 6.57148C133.954 4.85716 136.284 4 139.231 4C140.651 4 142.124 4.21429 143.651 4.64287C145.204 5.04467 146.169 5.24556 146.544 5.24556C146.919 5.24556 147.253 4.9777 147.548 4.44197H147.99L148.271 12.5582H147.628C146.343 10.2278 144.99 8.36616 143.57 6.97328C142.177 5.5536 140.651 4.84377 138.99 4.84377C137.356 4.84377 136.084 5.23217 135.173 6.00897C134.262 6.75899 133.807 7.77687 133.807 9.06261C133.807 10.3216 134.342 11.2993 135.414 11.9957C136.512 12.6654 137.851 13.2145 139.432 13.6431C141.012 14.0716 142.044 14.3663 142.526 14.527C143.035 14.6877 143.651 14.9154 144.374 15.2101C145.124 15.4779 145.727 15.7726 146.182 16.094C146.664 16.3887 147.16 16.7771 147.669 17.2592C148.204 17.7146 148.62 18.2235 148.914 18.786C149.637 20.0718 149.999 21.5986 149.999 23.3665C149.999 26.2594 149.088 28.5898 147.267 30.3577C145.472 32.0988 143.102 32.9694 140.155 32.9694C138.628 32.9694 136.874 32.7685 134.892 32.3667C132.936 31.9649 131.851 31.764 131.637 31.764C131.262 31.764 130.9 32.1658 130.552 32.9694H129.99L129.588 23.4067H130.271C131.45 25.7371 132.95 27.7728 134.771 29.5139C136.619 31.255 138.561 32.1256 140.597 32.1256Z" fill="#012C3E"/>
<path d="M111.394 24.0088C111.394 26.4731 111.81 28.3616 112.64 29.6741C113.497 30.9866 115.024 31.6429 117.22 31.6429C119.417 31.6429 121.104 30.9598 122.283 29.5937C123.462 28.2276 124.051 26.1517 124.051 23.3659V5.20482H121.439V4.44141H127.306V5.20482H125.096V23.0847C125.096 26.4062 124.359 28.8839 122.886 30.5179C121.413 32.1518 118.801 32.9688 115.051 32.9688C111.327 32.9688 108.475 32.192 106.493 30.6384C104.537 29.0848 103.559 26.4196 103.559 22.6427V5.20482H101.35V4.44141H114.006V5.20482H111.394V24.0088Z" fill="#012C3E"/>
<path d="M90.2763 25.2945L97.2675 5.20482H94.1335V4.44141H100.281V5.20482H98.3926L88.7093 32.9688H85.3342L75.0885 5.20482H73.2402V4.44141H86.3789V5.20482H83.5262L90.2763 25.2945Z" fill="#012C3E"/>
<path d="M68.2278 31.8064L65.2947 23.1276H57.3391L54.2453 31.8064H57.2588V32.5698H51.1113V31.8064H52.9998L63.2455 4.20312H66.5402L76.6654 31.8064H78.5137V32.5698H65.375V31.8064H68.2278ZM61.4776 11.7167L57.7008 22.2437H64.9732L61.4776 11.7167Z" fill="#012C3E"/>
<path d="M27.7773 4.44141H42.2419V5.32535H37.9829V31.6831H39.4294C41.7062 31.6831 43.5143 30.9866 44.8536 29.5937C46.2197 28.2008 47.5992 26.0579 48.9921 23.165H49.8358L49.0724 32.567H27.7773V31.6831H30.1479V5.32535H27.7773V4.44141Z" fill="#012C3E"/>
<path d="M4 4.44141H24.8933L25.2951 12.7987H24.5719C23.5808 9.90581 22.429 7.93702 21.1164 6.89235C19.8307 5.84769 17.9021 5.32535 15.3306 5.32535H14.2056V18.3837H16.0136C17.2994 18.3837 18.3708 17.9149 19.228 16.9774C20.0852 16.0399 20.6745 14.7541 20.9959 13.1202H21.5986V25.0133H20.9155C20.487 23.0043 19.8843 21.5712 19.1075 20.7141C18.3574 19.8569 17.3262 19.4283 16.0136 19.4283H14.2056V31.6831H19.1878V32.567H4V31.6831H6.37059V5.32535H4V4.44141Z" fill="#012C3E"/>
</g>
<defs>
<filter id="filter0_f_1244_384" x="0" y="0" width="153.999" height="36.9688" filterUnits="userSpaceOnUse" color-interpolation-filters="sRGB">
<feFlood flood-opacity="0" result="BackgroundImageFix"/>
<feBlend mode="normal" in="SourceGraphic" in2="BackgroundImageFix" result="shape"/>
<feGaussianBlur stdDeviation="2" result="effect1_foregroundBlur_1244_384"/>
</filter>
</defs>
</svg>
