<svg width="83" height="101" viewBox="0 0 83 101" fill="none" xmlns="http://www.w3.org/2000/svg">
<rect x="2" y="2" width="79" height="79" rx="39.5" stroke="#012C3E" stroke-opacity="0.29" stroke-width="4"/>
<circle cx="41.5" cy="41.5" r="37.5" fill="#012C3E"/>
<path d="M63.2132 38.615C62.5431 33.2279 59.9537 28.2705 55.9278 24.6673C51.9018 21.0641 46.7142 19.061 41.3323 19.0316C35.9503 19.0021 30.7415 20.9484 26.6771 24.5074C22.6126 28.0663 19.9701 32.9951 19.2422 38.3745" stroke="white" stroke-width="0.739008" stroke-linecap="round"/>
<path d="M63.2132 44.1585C62.5431 49.5455 59.9537 54.5029 55.9278 58.1061C51.9018 61.7093 46.7142 63.7124 41.3323 63.7419C35.9503 63.7713 30.7415 61.8251 26.6771 58.2661C22.6126 54.7071 19.9701 49.7784 19.2422 44.3989" stroke="white" stroke-width="0.739008" stroke-linecap="round"/>
<circle cx="63.3984" cy="41.3808" r="0.923761" fill="white"/>
<circle cx="19.4277" cy="41.3808" r="0.923761" fill="white"/>
<path d="M12.9319 32.1566C12.7875 32.1033 12.6623 32.1092 12.5561 32.1744C12.4467 32.2383 12.3611 32.354 12.2992 32.5213L11.9881 33.3629L12.8592 33.6849L13.1685 32.8482C13.2303 32.6809 13.2422 32.538 13.2039 32.4194C13.1636 32.2964 13.073 32.2088 12.9319 32.1566ZM14.6314 35.0952L11.1864 33.8217L11.7776 32.2222C11.8662 31.9827 11.9818 31.7961 12.1244 31.6624C12.2638 31.5274 12.4176 31.4444 12.5857 31.4133C12.7518 31.3778 12.9201 31.3915 13.0907 31.4546C13.2416 31.5103 13.3593 31.5855 13.4436 31.6801C13.528 31.7747 13.5832 31.8827 13.6091 32.0042C13.633 32.1212 13.6334 32.2463 13.6103 32.3794L13.6497 32.394C13.7251 32.2503 13.8157 32.1365 13.9213 32.0525C14.0237 31.9673 14.1432 31.9163 14.2799 31.8997C14.4165 31.8831 14.5669 31.9051 14.731 31.9658C14.9114 32.0325 15.0558 32.1362 15.1641 32.2769C15.2692 32.4165 15.3312 32.5867 15.3502 32.7876C15.3671 32.9841 15.3318 33.2004 15.2445 33.4366L14.6314 35.0952ZM14.3209 34.2252L14.6556 33.3196C14.7199 33.1457 14.7319 32.9973 14.6916 32.8742C14.6493 32.7467 14.5543 32.6556 14.4066 32.6011C14.2524 32.5441 14.1165 32.5535 13.999 32.6294C13.8826 32.702 13.7929 32.8236 13.7299 32.9942L13.4006 33.885L14.3209 34.2252Z" fill="white"/>
<path d="M16.1036 24.4493L15.9898 24.6L17.7964 27.3186L17.3569 27.9006L15.2194 24.6363L15.9245 23.7026L19.6492 24.8649L19.2097 25.4469L16.1036 24.4493ZM16.6902 26.3978L17.9802 24.6894L18.4533 25.0467L17.1633 26.7551L16.6902 26.3978Z" fill="white"/>
<path d="M22.7337 18.0279C22.636 17.8957 22.5172 17.8204 22.3774 17.802C22.2404 17.7814 22.0876 17.8335 21.9188 17.9583L21.2901 18.4231L21.9358 19.2964L22.5645 18.8317C22.677 18.7485 22.7573 18.663 22.8055 18.5752C22.8516 18.4846 22.8676 18.3944 22.8535 18.3048C22.8402 18.2102 22.8003 18.118 22.7337 18.0279ZM21.5832 17.4691C21.8223 17.2923 22.0504 17.1889 22.2675 17.159C22.4853 17.1241 22.6842 17.1489 22.8641 17.2334C23.0447 17.313 23.1954 17.4344 23.316 17.5975C23.3971 17.7072 23.4585 17.8315 23.5002 17.9703C23.5398 18.1063 23.5507 18.2505 23.5329 18.4029C23.513 18.5524 23.4552 18.7039 23.3597 18.8571C23.267 19.0083 23.1251 19.1546 22.9338 19.296L22.2883 19.7732L23.1211 20.8997L22.5515 21.3208L20.3681 18.3674L21.5832 17.4691ZM23.1141 18.8691L24.8847 19.5959L24.2476 20.0669L22.5107 19.3151L23.1141 18.8691Z" fill="white"/>
<path d="M30.054 13.5975C30.0011 13.453 29.9153 13.3614 29.7969 13.3229C29.6772 13.2811 29.5337 13.2909 29.3662 13.3523L28.5238 13.6612L28.8435 14.5331L29.681 14.226C29.8485 14.1646 29.9649 14.0809 30.0304 13.975C30.0979 13.8645 30.1058 13.7387 30.054 13.5975ZM28.9191 16.7967L27.6546 13.3484L29.2557 12.7613C29.4954 12.6734 29.7124 12.6404 29.9067 12.6623C30.0999 12.6809 30.2627 12.7441 30.3954 12.8519C30.5302 12.9553 30.6289 13.0923 30.6915 13.2631C30.7469 13.4142 30.7659 13.5525 30.7486 13.6781C30.7313 13.8036 30.6849 13.9157 30.6092 14.0142C30.5357 14.1082 30.4407 14.1896 30.3243 14.2584L30.3388 14.2978C30.4971 14.2621 30.6425 14.2572 30.7749 14.2832C30.9062 14.3058 31.0224 14.3638 31.1237 14.4571C31.225 14.5503 31.3057 14.6791 31.3659 14.8433C31.4321 15.0239 31.4468 15.2011 31.4099 15.3748C31.3718 15.5453 31.2824 15.7029 31.1418 15.8476C31.0032 15.9878 30.8157 16.1013 30.5792 16.188L28.9191 16.7967ZM29.38 15.9962L30.2864 15.6638C30.4605 15.6 30.5813 15.5129 30.6488 15.4024C30.7184 15.2875 30.7262 15.1561 30.672 15.0083C30.6154 14.854 30.5201 14.7567 30.3861 14.7164C30.2554 14.6749 30.1046 14.6854 29.9339 14.7481L29.0422 15.075L29.38 15.9962Z" fill="white"/>
<path d="M38.8553 10.9685L36.9862 11.0908L37.0471 12.0227L38.4451 11.9313L38.4824 12.502L37.0844 12.5934L37.1485 13.5725L39.0176 13.4503L39.0563 14.0419L36.4803 14.2104L36.2407 10.5453L38.8167 10.3769L38.8553 10.9685Z" fill="white"/>
<path d="M46.8185 11.8335C46.8538 11.6729 46.8324 11.5339 46.7544 11.4165C46.6797 11.2998 46.5399 11.219 46.3349 11.1739L45.5714 11.0061L45.3382 12.0669L46.1018 12.2347C46.2385 12.2647 46.3557 12.269 46.4536 12.2475C46.5521 12.2227 46.6306 12.1754 46.6888 12.1059C46.7513 12.0336 46.7945 11.9428 46.8185 11.8335ZM46.4827 10.5993C46.7731 10.6631 47.001 10.7669 47.1664 10.9107C47.3359 11.0518 47.448 11.218 47.5027 11.409C47.5616 11.5975 47.5693 11.7908 47.5257 11.9889C47.4965 12.1222 47.4433 12.2502 47.3661 12.3729C47.2898 12.4922 47.1883 12.5953 47.0618 12.6821C46.9361 12.7654 46.7841 12.8216 46.6058 12.8505C46.431 12.8801 46.2274 12.8694 45.9951 12.8183L45.211 12.646L44.9103 14.0143L44.2185 13.8623L45.0068 10.275L46.4827 10.5993ZM46.4352 12.6733L47.0524 14.485L46.2786 14.315L45.7024 12.5122L46.4352 12.6733Z" fill="white"/>
<path d="M52.7616 15.0354C52.7305 15.1299 52.7237 15.2236 52.7412 15.3164C52.7587 15.4093 52.799 15.4966 52.8622 15.5784C52.9302 15.6588 53.0211 15.7297 53.135 15.7911C53.3136 15.8874 53.4691 15.9196 53.6016 15.8877C53.7357 15.8527 53.8343 15.7767 53.8974 15.6597C53.9472 15.5673 53.961 15.4754 53.9388 15.384C53.9165 15.2925 53.8663 15.1978 53.7879 15.0999C53.7126 15.0037 53.6196 14.8999 53.5088 14.7885C53.4055 14.6851 53.3055 14.5795 53.2087 14.4716C53.1118 14.3638 53.0316 14.251 52.9679 14.1332C52.9043 14.0154 52.8706 13.8899 52.8669 13.7568C52.8679 13.6222 52.9107 13.4764 52.9954 13.3194C53.1017 13.1224 53.2399 12.9803 53.41 12.8932C53.5833 12.8078 53.7736 12.7753 53.9812 12.7958C54.1887 12.8163 54.4033 12.8863 54.625 13.0059C54.8128 13.1071 54.9672 13.2262 55.0882 13.3629C55.2108 13.4966 55.2947 13.6432 55.3399 13.8027C55.3897 13.9607 55.3987 14.1285 55.3666 14.3059L54.7046 14.1516C54.7257 14.0756 54.7234 13.9988 54.6976 13.9213C54.6719 13.8439 54.6295 13.7713 54.5705 13.7038C54.5132 13.6332 54.4415 13.5746 54.3553 13.5281C54.2646 13.4752 54.1724 13.4434 54.0789 13.4327C53.9853 13.422 53.8996 13.4334 53.8219 13.467C53.7442 13.5006 53.6846 13.5559 53.6431 13.6329C53.5966 13.7191 53.5854 13.8025 53.6095 13.883C53.6353 13.9605 53.6813 14.041 53.7476 14.1244C53.8156 14.2048 53.8943 14.2909 53.9838 14.3829C54.0932 14.4896 54.1992 14.6024 54.302 14.7214C54.4064 14.8373 54.4926 14.9613 54.5605 15.0933C54.6301 15.2222 54.6673 15.3595 54.6722 15.5052C54.6801 15.6526 54.6385 15.8109 54.5472 15.9803C54.4509 16.1588 54.3206 16.2972 54.1564 16.3955C53.9952 16.4953 53.8067 16.5427 53.5909 16.5376C53.3751 16.5325 53.1394 16.4611 52.8838 16.3233C52.6745 16.2104 52.5002 16.0767 52.361 15.9221C52.2248 15.7692 52.1329 15.6044 52.0851 15.4276C52.039 15.2478 52.0431 15.0671 52.0972 14.8857L52.7616 15.0354Z" fill="white"/>
<path d="M60.9955 16.7804L61.4983 17.2793L60.4302 18.3557L61.5848 19.5014L62.6529 18.425L63.1557 18.9239L60.5687 21.5311L60.0659 21.0322L61.1672 19.9223L60.0126 18.7766L58.9113 19.8865L58.4085 19.3876L60.9955 16.7804Z" fill="white"/>
<path d="M64.929 26.8314C64.8085 26.6023 64.7356 26.366 64.7103 26.1224C64.6849 25.8788 64.7051 25.6429 64.7708 25.4147C64.8413 25.1879 64.9544 24.9783 65.11 24.7858C65.2688 24.5917 65.4704 24.4303 65.715 24.3016C65.9596 24.173 66.2053 24.0991 66.4521 24.08C66.6989 24.0609 66.9357 24.0865 67.1625 24.157C67.3909 24.2305 67.5982 24.3468 67.7845 24.5057C67.9709 24.6646 68.1243 24.8586 68.2448 25.0877C68.3669 25.3199 68.4398 25.5562 68.4635 25.7967C68.4888 26.0402 68.4671 26.277 68.3982 26.5068C68.3294 26.7367 68.2164 26.9463 68.0591 27.1357C67.9034 27.3282 67.7033 27.4888 67.4587 27.6174C67.2141 27.746 66.9669 27.8207 66.717 27.8415C66.4718 27.8637 66.235 27.8381 66.0066 27.7645C65.7813 27.6894 65.5755 27.5723 65.3892 27.4134C65.2045 27.2576 65.0511 27.0636 64.929 26.8314ZM65.4655 26.5552C65.568 26.7502 65.7057 26.8992 65.8783 27.002C66.0557 27.1064 66.2508 27.1579 66.4635 27.1567C66.6779 27.1586 66.8981 27.1001 67.1241 26.9812C67.3502 26.8623 67.5231 26.7141 67.6431 26.5364C67.7647 26.3618 67.8312 26.1726 67.8427 25.969C67.8589 25.7668 67.8157 25.5682 67.7131 25.3732C67.6073 25.1719 67.4657 25.0191 67.2883 24.9148C67.1157 24.812 66.923 24.7611 66.7102 24.7624C66.4974 24.7636 66.278 24.8237 66.052 24.9425C65.8291 25.0597 65.6553 25.2065 65.5306 25.3827C65.4059 25.5589 65.337 25.7473 65.3239 25.9479C65.3125 26.1515 65.3596 26.354 65.4655 26.5552Z" fill="white"/>
<path d="M70.2285 34.1713C70.2545 34.3088 70.2965 34.4183 70.3546 34.4999C70.4162 34.5808 70.4904 34.6345 70.5772 34.6608C70.6681 34.6899 70.7686 34.6941 70.8786 34.6733C71.047 34.6416 71.1682 34.5671 71.2422 34.4499C71.3169 34.3361 71.3347 34.1761 71.2958 33.9699L71.1508 33.2016L70.0836 33.403L70.2285 34.1713ZM71.0128 35.3849C70.8788 35.4102 70.7402 35.4114 70.5971 35.3886C70.4574 35.3651 70.3228 35.3122 70.1933 35.2298C70.0673 35.1468 69.9561 35.0289 69.8596 34.8763C69.7638 34.7271 69.6939 34.5356 69.6498 34.3018L69.5009 33.513L68.1243 33.7727L67.9929 33.0767L71.6021 32.3956L71.8823 33.8806C71.9375 34.1727 71.9313 34.4231 71.8639 34.6316C71.8005 34.8429 71.6916 35.0111 71.5373 35.1364C71.387 35.2644 71.2122 35.3472 71.0128 35.3849Z" fill="white"/>
<path d="M70.6186 47.0826C70.8806 47.1705 71.1044 47.2953 71.2899 47.4572C71.4787 47.6202 71.6244 47.8074 71.7268 48.0188C71.8326 48.2314 71.893 48.4583 71.908 48.6995C71.9219 48.944 71.8872 49.1906 71.8037 49.4393C71.6836 49.7975 71.4911 50.0853 71.2263 50.3027C70.9637 50.5245 70.6499 50.6516 70.2848 50.6841L70.3092 50.0669C70.473 50.0407 70.6163 49.9873 70.7393 49.9068C70.8611 49.8296 70.963 49.7347 71.0451 49.622C71.1272 49.5093 71.1899 49.3883 71.2333 49.259C71.3045 49.0468 71.3165 48.8405 71.2693 48.6402C71.2255 48.441 71.1279 48.2644 70.9767 48.1103C70.8243 47.9596 70.6288 47.8442 70.39 47.7641C70.1512 47.684 69.9256 47.6581 69.7132 47.6864C69.5029 47.7192 69.3186 47.8013 69.1602 47.9326C69.0017 48.0639 68.8869 48.2357 68.8157 48.448C68.7712 48.5806 68.7472 48.7183 68.7436 48.861C68.7422 49.0081 68.7723 49.1547 68.834 49.3008C68.8956 49.447 68.996 49.5877 69.1351 49.7229L68.7957 50.2233C68.4821 49.9594 68.2813 49.656 68.1935 49.3129C68.109 48.9709 68.1285 48.6159 68.2519 48.2478C68.3354 47.999 68.4564 47.7814 68.6149 47.5947C68.7723 47.4114 68.9574 47.2669 69.1699 47.1611C69.3825 47.0553 69.6116 46.9938 69.8572 46.9766C70.1061 46.9605 70.3599 46.9958 70.6186 47.0826Z" fill="white"/>
<path d="M68.8934 56.8642L68.4766 57.4369L66.6014 56.0724C66.4628 55.9715 66.3248 55.9144 66.1875 55.901C66.053 55.8896 65.9267 55.9145 65.8087 55.9757C65.6885 56.0397 65.5822 56.1353 65.4896 56.2626C65.3949 56.3927 65.3356 56.5248 65.3116 56.6587C65.2877 56.7927 65.3018 56.922 65.3539 57.0464C65.4089 57.173 65.5057 57.2867 65.6443 57.3875L67.5195 58.7521L67.1027 59.3249L65.2572 57.9819C65.0621 57.8399 64.9171 57.6824 64.8222 57.5096C64.7274 57.3367 64.6751 57.1559 64.6654 56.9672C64.6536 56.7812 64.6782 56.5958 64.7392 56.4109C64.801 56.2309 64.8905 56.0603 65.0078 55.8991C65.1643 55.6841 65.3528 55.5142 65.5735 55.3893C65.7922 55.2672 66.0275 55.2113 66.2795 55.2217C66.5315 55.232 66.7877 55.3319 67.0479 55.5212L68.8934 56.8642Z" fill="white"/>
<path d="M63.3021 64.04L60.935 65.8506L60.5747 65.3797L61.4749 64.6911L59.6037 62.2448L60.1663 61.8144L62.0376 64.2608L62.9419 63.569L63.3021 64.04Z" fill="white"/>
<path d="M48.031 71.2149C48.0838 71.2599 48.1472 71.2928 48.2211 71.3134C48.2949 71.3341 48.3838 71.3366 48.4875 71.3208C48.6604 71.2946 48.7808 71.2251 48.8486 71.1122C48.9135 71.0033 48.9347 70.8745 48.9121 70.7258C48.8948 70.6117 48.8518 70.5262 48.7831 70.4694C48.7114 70.4166 48.6198 70.3845 48.5084 70.3731C48.3941 70.3656 48.2623 70.3714 48.1131 70.3905L46.8317 70.5846L46.7468 70.0244L48.023 69.831C48.2997 69.7891 48.4987 69.7253 48.6202 69.6397C48.7382 69.5546 48.782 69.4117 48.7516 69.2112C48.7359 69.1074 48.7035 69.0221 48.6545 68.9552C48.6054 68.8884 48.54 68.8417 48.4581 68.8152C48.3728 68.7892 48.2662 68.7859 48.1382 68.8052C47.9411 68.8351 47.8101 68.9045 47.7452 69.0134C47.6803 69.1223 47.6636 69.2805 47.6951 69.488L47.8098 70.2454L47.125 70.3492L47.0103 69.5917C46.9668 69.3047 46.9835 69.0651 47.0606 68.873C47.1341 68.6814 47.2583 68.5317 47.433 68.4239C47.6042 68.3166 47.8144 68.244 48.0634 68.2063C48.3262 68.1665 48.5559 68.1759 48.7523 68.2346C48.9487 68.2933 49.1068 68.3914 49.2267 68.5289C49.3437 68.6704 49.4176 68.8431 49.4485 69.0472C49.4726 69.2063 49.4671 69.3451 49.432 69.4636C49.3934 69.5827 49.3312 69.6859 49.2454 69.7732C49.1596 69.8605 49.0556 69.9328 48.9334 69.9903L48.9365 70.011C49.0351 70.0314 49.1344 70.0677 49.2342 70.1198C49.3312 70.1759 49.4169 70.2513 49.4914 70.3462C49.563 70.445 49.6095 70.5653 49.631 70.7071C49.6593 70.8939 49.6403 71.0719 49.574 71.2411C49.5042 71.4109 49.3881 71.5559 49.2259 71.676C49.0637 71.7961 48.8546 71.8755 48.5987 71.9143C48.3808 71.9473 48.1821 71.9438 48.0027 71.9038C47.8198 71.8642 47.6636 71.7906 47.5341 71.6829L48.031 71.2149ZM47.5341 71.6829L48.031 71.2149L47.5341 71.6829ZM48.0716 70.3968C48.0162 70.4052 47.9691 70.4212 47.9302 70.4447C47.8913 70.4683 47.8637 70.5079 47.8474 70.5634C47.831 70.619 47.8302 70.6952 47.8449 70.792L47.8802 71.0254L47.2266 71.1245L47.1378 70.5383L46.5619 70.6255L46.477 70.0652L47.0529 69.978L46.9633 69.3866C46.9418 69.2448 46.8957 69.1509 46.8251 69.105C46.755 69.0626 46.6611 69.0503 46.5435 69.0681C46.5188 69.0683 46.4894 69.0728 46.4553 69.0815C46.4178 69.0907 46.3771 69.1022 46.3332 69.1159L46.2467 68.5452C46.3034 68.5225 46.3589 68.5035 46.4132 68.4882C46.4675 68.4729 46.5206 68.4613 46.5725 68.4534C46.735 68.4288 46.8934 68.4349 47.0475 68.4717C47.1988 68.5124 47.3301 68.5969 47.4415 68.7251C47.5534 68.8567 47.6275 69.0418 47.6636 69.2805L47.754 69.8771L48.1275 69.8205L48.2116 70.3756L48.0716 70.3968Z" fill="white"/>
<path d="M34.3254 69.1346C34.3425 69.0366 34.3358 68.9429 34.3051 68.8535C34.2744 68.7641 34.2219 68.6835 34.1475 68.6117C34.0687 68.542 33.9685 68.4849 33.8469 68.4406C33.6563 68.3711 33.4978 68.3616 33.3713 68.4123C33.2436 68.4663 33.157 68.5557 33.1115 68.6806C33.0755 68.7792 33.0751 68.8721 33.1103 68.9594C33.1455 69.0467 33.2089 69.1331 33.3006 69.2187C33.3889 69.3031 33.496 69.3924 33.6217 69.4866C33.7388 69.574 33.853 69.6641 33.9644 69.7569C34.0757 69.8496 34.1714 69.9497 34.2514 70.057C34.3314 70.1644 34.3828 70.2837 34.4057 70.4149C34.4241 70.5482 34.4027 70.6987 34.3416 70.8663C34.2649 71.0766 34.1486 71.2371 33.9928 71.3478C33.8337 71.4573 33.65 71.5169 33.4417 71.5266C33.2334 71.5362 33.0109 71.4979 32.7743 71.4116C32.5738 71.3385 32.4039 71.243 32.2645 71.1251C32.1238 71.0105 32.0196 70.8775 31.952 70.7262C31.8798 70.577 31.8468 70.4123 31.8529 70.2321L32.5302 70.2893C32.5203 70.3676 32.5337 70.4432 32.5703 70.5162C32.607 70.5891 32.6594 70.6548 32.7275 70.7131C32.7944 70.7748 32.8738 70.8223 32.9658 70.8559C33.0632 70.8952 33.159 70.9133 33.2531 70.9104C33.3473 70.9076 33.4304 70.8839 33.5024 70.8394C33.5745 70.795 33.6255 70.7317 33.6555 70.6495C33.6891 70.5575 33.6881 70.4734 33.6526 70.3971C33.6159 70.3242 33.5588 70.2512 33.4811 70.1782C33.4023 70.1085 33.312 70.0346 33.2102 69.9565C33.0865 69.8667 32.9653 69.7703 32.8465 69.6674C32.7264 69.5678 32.6233 69.4575 32.537 69.3367C32.4496 69.2192 32.3929 69.0887 32.3671 68.9452C32.3379 68.8005 32.3563 68.6378 32.4223 68.4571C32.4918 68.2665 32.6007 68.1107 32.7491 67.9899C32.8942 67.8678 33.0738 67.7937 33.2881 67.7676C33.5024 67.7415 33.746 67.7782 34.0187 67.8777C34.2422 67.9592 34.4339 68.0664 34.594 68.1993C34.7507 68.3309 34.8655 68.4808 34.9383 68.6488C35.0098 68.8201 35.0319 68.9994 35.0045 69.1868L34.3254 69.1346Z" fill="white"/>
<path d="M25.9312 68.599L25.3618 68.1777L26.2638 66.9588L24.9563 65.9912L24.0543 67.2101L23.4849 66.7888L25.6697 63.8364L26.2391 64.2577L25.309 65.5146L26.6165 66.4821L27.5466 65.2253L28.116 65.6466L25.9312 68.599Z" fill="white"/>
<path d="M18.1536 61.1022L18.2674 61.253L21.3766 60.2591L21.8161 60.841L18.0916 62.0039L17.3864 61.0702L19.5234 57.8056L19.9629 58.3876L18.1536 61.1022ZM20.1883 61.0712L18.898 59.3629L19.3711 59.0056L20.6614 60.7138L20.1883 61.0712Z" fill="white"/>
<path d="M12.7997 53.3694L12.5306 52.6634L16.4429 52.6153L16.7475 53.4144L13.7939 55.9778L13.5248 55.2717L15.9177 53.2703L12.7997 53.3694Z" fill="white"/>
<path d="M11.1694 44.5L11.3125 46.3677L12.2437 46.2963L12.1367 44.8995L12.7069 44.8558L12.814 46.2526L13.7923 46.1776L13.6492 44.3099L14.2403 44.2646L14.4376 46.8386L10.7755 47.1193L10.5782 44.5453L11.1694 44.5Z" fill="white"/>
<path d="M49.9932 50.5053C50.8762 50.5053 51.6533 50.2669 52.3245 49.7901C53.0133 49.3132 53.3577 48.5979 53.3577 47.6442C53.3577 46.6728 52.9868 45.9311 52.245 45.4189C51.5209 44.9067 50.4789 44.4652 49.1189 44.0943C47.7767 43.7057 46.7965 43.3702 46.1783 43.0876C45.5779 42.805 45.0039 42.4341 44.4564 41.9749C43.3614 41.0565 42.8139 39.6348 42.8139 37.7097C42.8139 36.1378 43.3702 34.7868 44.4828 33.6564C45.6132 32.5261 47.1497 31.9609 49.0925 31.9609C50.0285 31.9609 50.9999 32.1022 52.0066 32.3848C53.0309 32.6497 53.6667 32.7822 53.914 32.7822C54.1613 32.7822 54.382 32.6056 54.5763 32.2523H54.8677L55.0532 37.6037H54.6293C53.7815 36.0672 52.8896 34.8397 51.9536 33.9213C51.0352 32.9853 50.0285 32.5173 48.9335 32.5173C47.8562 32.5173 47.0172 32.7734 46.4168 33.2855C45.8163 33.7801 45.516 34.4512 45.516 35.2989C45.516 36.129 45.8693 36.7737 46.5757 37.2328C47.2998 37.6744 48.1829 38.0364 49.2249 38.319C50.2669 38.6016 50.9469 38.7959 51.2648 38.9018C51.6004 39.0078 52.0066 39.1579 52.4834 39.3522C52.978 39.5288 53.3753 39.7231 53.6756 39.935C53.9935 40.1293 54.3202 40.3854 54.6558 40.7033C55.009 41.0035 55.2828 41.3391 55.477 41.71C55.9539 42.5577 56.1923 43.5644 56.1923 44.7301C56.1923 46.6375 55.5918 48.174 54.3909 49.3397C53.2075 50.4877 51.6445 51.0617 49.7018 51.0617C48.6951 51.0617 47.5383 50.9292 46.2313 50.6643C44.942 50.3994 44.2268 50.2669 44.0855 50.2669C43.8382 50.2669 43.5998 50.5318 43.3702 51.0617H42.9993L42.7344 44.7566H43.1847C43.9618 46.2931 44.9509 47.6354 46.1518 48.7834C47.3705 49.9313 48.6509 50.5053 49.9932 50.5053Z" fill="white"/>
<path d="M26.6348 32.2539H40.4106L40.6755 37.7642H40.1987C39.5452 35.8568 38.7858 34.5587 37.9204 33.8699C37.0726 33.1811 35.801 32.8367 34.1055 32.8367H33.3637V41.4466H34.5559C35.4036 41.4466 36.1101 41.1376 36.6752 40.5194C37.2404 39.9013 37.6289 39.0535 37.8409 37.9762H38.2383V45.8178H37.7879C37.5053 44.4932 37.1079 43.5483 36.5958 42.9832C36.1012 42.418 35.4213 42.1354 34.5559 42.1354H33.3637V50.2155H36.6487V50.7983H26.6348V50.2155H28.1978V32.8367H26.6348V32.2539Z" fill="white"/>
<path d="M40.7787 100.637L26.4143 75.7569H55.1431L40.7787 100.637Z" fill="#012C3E"/>
</svg>
