<svg width="89" height="88" viewBox="0 0 89 88" fill="none" xmlns="http://www.w3.org/2000/svg">
<g opacity="0.55">
<path d="M59.5078 0.00293922C63.3701 0.00293906 67.0741 1.54157 69.8051 4.28035C72.5362 7.01913 74.0704 10.7337 74.0704 14.6069C74.0704 18.4802 72.5362 22.1947 69.8051 24.9335C67.0741 27.6723 63.3701 29.2109 59.5078 29.2109L59.5078 14.6069L59.5078 0.00293922Z" fill="#DCB678"/>
<path d="M88.6348 0.00293922C84.7725 0.00293973 81.0685 1.54157 78.3374 4.28035C75.6064 7.01913 74.0721 10.7337 74.0721 14.6069C74.0721 18.4802 75.6064 22.1947 78.3374 24.9335C81.0685 27.6723 84.7725 29.2109 88.6348 29.2109L88.6348 14.6069L88.6348 0.00293922Z" fill="#DCB678"/>
<circle cx="43.4472" cy="14.2402" r="14.2402" fill="#DCB678"/>
<path d="M29.208 0.0390625C29.208 3.90131 27.6694 7.60537 24.9306 10.3364C22.1918 13.0674 18.4772 14.6017 14.604 14.6017C10.7308 14.6017 7.01619 13.0674 4.27741 10.3364C1.53863 7.60537 5.8484e-07 3.90131 0 0.039065L14.604 0.0390625L29.208 0.0390625Z" fill="#DCB678"/>
<path d="M29.208 29.168C29.208 25.3057 27.6694 21.6017 24.9306 18.8706C22.1918 16.1396 18.4772 14.6053 14.604 14.6053C10.7308 14.6053 7.01619 16.1396 4.27741 18.8706C1.53863 21.6017 2.47191e-07 25.3057 0 29.168L14.604 29.168L29.208 29.168Z" fill="#DCB678"/>
<path d="M29.127 29.2217C25.2647 29.2217 21.5606 30.7603 18.8296 33.4991C16.0986 36.2379 14.5643 39.9525 14.5643 43.8257C14.5643 47.6989 16.0986 51.4135 18.8296 54.1523C21.5606 56.8911 25.2647 58.4297 29.127 58.4297L29.127 43.8257L29.127 29.2217Z" fill="#DCB678"/>
<path d="M3.83017e-06 29.2217C3.86225 29.2217 7.56631 30.7603 10.2973 33.4991C13.0284 36.2379 14.5626 39.9525 14.5626 43.8257C14.5626 47.6989 13.0284 51.4135 10.2973 54.1523C7.56631 56.8911 3.86225 58.4297 2.51794e-06 58.4297L1.91508e-06 43.8257L3.83017e-06 29.2217Z" fill="#DCB678"/>
<circle cx="14.2402" cy="14.2402" r="14.2402" transform="matrix(-1 0 0 1 59.4277 29.2266)" fill="#DCB678"/>
<path d="M59.4268 29.2656C59.4268 33.1279 60.9654 36.8319 63.7042 39.563C66.443 42.294 70.1575 43.8283 74.0308 43.8283C77.904 43.8283 81.6186 42.294 84.3574 39.563C87.0961 36.8319 88.6348 33.1279 88.6348 29.2656L74.0308 29.2656L59.4268 29.2656Z" fill="#DCB678"/>
<path d="M59.4268 58.3906C59.4268 54.5284 60.9654 50.8243 63.7042 48.0933C66.443 45.3623 70.1575 43.828 74.0308 43.828C77.904 43.828 81.6186 45.3623 84.3574 48.0933C87.0961 50.8243 88.6348 54.5284 88.6348 58.3906L74.0308 58.3906L59.4268 58.3906Z" fill="#DCB678"/>
<path d="M59.5078 57.917C63.3701 57.917 67.0741 59.4556 69.8051 62.1944C72.5362 64.9332 74.0704 68.6478 74.0704 72.521C74.0704 76.3942 72.5362 80.1088 69.8051 82.8476C67.0741 85.5864 63.3701 87.125 59.5078 87.125L59.5078 72.521L59.5078 57.917Z" fill="#DCB678"/>
<path d="M88.6348 57.917C84.7725 57.917 81.0685 59.4556 78.3374 62.1944C75.6064 64.9332 74.0721 68.6478 74.0721 72.521C74.0721 76.3942 75.6064 80.1088 78.3374 82.8476C81.0685 85.5864 84.7725 87.125 88.6348 87.125L88.6348 72.521L88.6348 57.917Z" fill="#DCB678"/>
<circle cx="43.4472" cy="72.1542" r="14.2402" fill="#DCB678"/>
<path d="M29.208 57.9609C29.208 61.8232 27.6694 65.5272 24.9306 68.2583C22.1918 70.9893 18.4772 72.5236 14.604 72.5236C10.7308 72.5236 7.01619 70.9893 4.27741 68.2583C1.53863 65.5272 5.8484e-07 61.8232 0 57.9609L14.604 57.9609L29.208 57.9609Z" fill="#DCB678"/>
<path d="M29.208 87.0859C29.208 83.2237 27.6694 79.5196 24.9306 76.7886C22.1918 74.0576 18.4772 72.5233 14.604 72.5233C10.7308 72.5233 7.01619 74.0576 4.27741 76.7886C1.53863 79.5196 2.47191e-07 83.2237 0 87.0859L14.604 87.0859L29.208 87.0859Z" fill="#DCB678"/>
</g>
</svg>
