<svg width="1920" height="60" viewBox="0 0 1920 60" fill="none" xmlns="http://www.w3.org/2000/svg">
<g clip-path="url(#clip0_1285_204)">
<circle opacity="0.6" cx="661" cy="-1.02344" r="59" fill="#DCB678"/>
<g opacity="0.6">
<path d="M481.107 60.0363C497.112 60.0363 512.462 53.6603 523.779 42.3109C535.096 30.9616 541.454 15.5686 541.454 -0.481854C541.454 -16.5323 535.096 -31.9253 523.779 -43.2746C512.462 -54.624 497.112 -61 481.107 -61L481.107 -0.481857L481.107 60.0363Z" fill="#DCB678"/>
<path d="M601.801 60.0363C585.796 60.0363 570.446 53.6603 559.129 42.3109C547.812 30.9616 541.454 15.5686 541.454 -0.481854C541.454 -16.5323 547.812 -31.9253 559.129 -43.2746C570.446 -54.624 585.796 -61 601.801 -61L601.801 -0.481857L601.801 60.0363Z" fill="#DCB678"/>
</g>
<g opacity="0.6">
<path d="M481.109 59.8672C481.109 43.8622 474.733 28.5128 463.383 17.1956C452.034 5.87842 436.641 -0.479518 420.59 -0.479518C404.54 -0.479518 389.147 5.87842 377.798 17.1956C366.448 28.5128 360.072 43.8622 360.072 59.8672L420.59 59.8672L481.109 59.8672Z" fill="#DCB678"/>
</g>
<circle opacity="0.6" cx="301" cy="-1.02344" r="59" fill="#DCB678"/>
<g opacity="0.6">
<path d="M121.037 60.0363C137.042 60.0363 152.391 53.6603 163.709 42.3109C175.026 30.9616 181.384 15.5686 181.384 -0.481854C181.384 -16.5323 175.026 -31.9253 163.709 -43.2746C152.391 -54.624 137.042 -61 121.037 -61L121.037 -0.481857L121.037 60.0363Z" fill="#DCB678"/>
<path d="M241.73 60.0363C225.726 60.0363 210.376 53.6603 199.059 42.3109C187.742 30.9616 181.384 15.5686 181.384 -0.481854C181.384 -16.5323 187.742 -31.9253 199.059 -43.2746C210.376 -54.624 225.726 -61 241.73 -61L241.73 -0.481857L241.73 60.0363Z" fill="#DCB678"/>
</g>
<g opacity="0.6">
<path d="M121.036 59.8672C121.036 43.8622 114.66 28.5128 103.311 17.1956C91.9616 5.87842 76.5686 -0.479518 60.5181 -0.479518C44.4677 -0.479518 29.0747 5.87842 17.7254 17.1956C6.376 28.5128 1.02435e-06 43.8622 0 59.8672L60.5181 59.8672L121.036 59.8672Z" fill="#DCB678"/>
</g>
<g opacity="0.6">
<path d="M840.516 60.0363C824.511 60.0363 809.161 53.6603 797.844 42.3109C786.527 30.9616 780.169 15.5686 780.169 -0.481854C780.169 -16.5323 786.527 -31.9253 797.844 -43.2746C809.161 -54.624 824.511 -61 840.516 -61L840.516 -0.481857L840.516 60.0363Z" fill="#DCB678"/>
<path d="M719.822 60.0363C735.827 60.0363 751.177 53.6603 762.494 42.3109C773.811 30.9616 780.169 15.5686 780.169 -0.481854C780.169 -16.5323 773.811 -31.9253 762.494 -43.2746C751.177 -54.624 735.827 -61 719.822 -61L719.822 -0.481857L719.822 60.0363Z" fill="#DCB678"/>
</g>
<g opacity="0.6">
<path d="M840.516 59.8672C840.516 43.8622 846.892 28.5128 858.242 17.1956C869.591 5.87842 884.984 -0.479518 901.035 -0.479518C917.085 -0.479518 932.478 5.87842 943.827 17.1956C955.177 28.5128 961.553 43.8622 961.553 59.8672L901.035 59.8672L840.516 59.8672Z" fill="#DCB678"/>
</g>
<circle opacity="0.6" cx="1619" cy="-1.02344" r="59" fill="#DCB678"/>
<g opacity="0.6">
<path d="M1798.96 60.0363C1782.96 60.0363 1767.61 53.6603 1756.29 42.3109C1744.97 30.9616 1738.62 15.5686 1738.62 -0.481854C1738.62 -16.5323 1744.97 -31.9253 1756.29 -43.2746C1767.61 -54.624 1782.96 -61 1798.96 -61L1798.96 -0.481857L1798.96 60.0363Z" fill="#DCB678"/>
<path d="M1678.27 60.0363C1694.27 60.0363 1709.62 53.6603 1720.94 42.3109C1732.26 30.9616 1738.62 15.5686 1738.62 -0.481854C1738.62 -16.5323 1732.26 -31.9253 1720.94 -43.2746C1709.62 -54.624 1694.27 -61 1678.27 -61L1678.27 -0.481857L1678.27 60.0363Z" fill="#DCB678"/>
</g>
<g opacity="0.6">
<path d="M1798.96 59.8672C1798.96 43.8622 1805.34 28.5128 1816.69 17.1956C1828.04 5.87842 1843.43 -0.479518 1859.48 -0.479518C1875.53 -0.479518 1890.93 5.87842 1902.27 17.1956C1913.62 28.5128 1920 43.8622 1920 59.8672L1859.48 59.8672L1798.96 59.8672Z" fill="#DCB678"/>
</g>
<g opacity="0.6">
<circle cx="1262.45" cy="-1.11451" r="59.0105" fill="#DCB678"/>
<path d="M1082.75 60.0402C1098.75 60.0402 1114.1 53.6642 1125.42 42.3148C1136.74 30.9655 1143.1 15.5725 1143.1 -0.477948C1143.1 -16.5284 1136.74 -31.9214 1125.42 -43.2707C1114.1 -54.6201 1098.75 -60.9961 1082.75 -60.9961L1082.75 -0.477951L1082.75 60.0402Z" fill="#DCB678"/>
<path d="M1203.44 60.0402C1187.44 60.0402 1172.09 53.6642 1160.77 42.3148C1149.45 30.9655 1143.1 15.5725 1143.1 -0.477948C1143.1 -16.5284 1149.45 -31.9214 1160.77 -43.2707C1172.09 -54.6201 1187.44 -60.9961 1203.44 -60.9961L1203.44 -0.477951L1203.44 60.0402Z" fill="#DCB678"/>
<path d="M1082.75 59.875C1082.75 43.8701 1076.37 28.5206 1065.02 17.2034C1053.67 5.88623 1038.28 -0.471706 1022.23 -0.471706C1006.18 -0.471705 990.788 5.88623 979.438 17.2034C968.089 28.5206 961.713 43.8701 961.713 59.875L1022.23 59.875L1082.75 59.875Z" fill="#DCB678"/>
<path d="M1442.16 60.0402C1426.15 60.0402 1410.8 53.6642 1399.48 42.3148C1388.17 30.9655 1381.81 15.5725 1381.81 -0.477948C1381.81 -16.5284 1388.17 -31.9214 1399.48 -43.2707C1410.8 -54.6201 1426.15 -60.9961 1442.16 -60.9961L1442.16 -0.477951L1442.16 60.0402Z" fill="#DCB678"/>
<path d="M1321.46 60.0402C1337.47 60.0402 1352.82 53.6642 1364.13 42.3148C1375.45 30.9655 1381.81 15.5725 1381.81 -0.477948C1381.81 -16.5284 1375.45 -31.9214 1364.13 -43.2707C1352.82 -54.6201 1337.47 -60.9961 1321.46 -60.9961L1321.46 -0.477951L1321.46 60.0402Z" fill="#DCB678"/>
<path d="M1442.16 59.875C1442.16 43.8701 1448.53 28.5206 1459.88 17.2034C1471.23 5.88623 1486.62 -0.471706 1502.68 -0.471706C1518.73 -0.471705 1534.12 5.88623 1545.47 17.2034C1556.82 28.5206 1563.19 43.8701 1563.19 59.875L1502.68 59.875L1442.16 59.875Z" fill="#DCB678"/>
<path d="M1442.16 59.875C1442.16 43.8701 1448.53 28.5206 1459.88 17.2034C1471.23 5.88623 1486.62 -0.471706 1502.68 -0.471706C1518.73 -0.471705 1534.12 5.88623 1545.47 17.2034C1556.82 28.5206 1563.19 43.8701 1563.19 59.875L1502.68 59.875L1442.16 59.875Z" fill="#DCB678"/>
</g>
</g>
<defs>
<clipPath id="clip0_1285_204">
<rect width="1920" height="60" fill="white"/>
</clipPath>
</defs>
</svg>
